<?xml version="1.0" encoding="UTF-8" standalone="no"?>
<!DOCTYPE svg PUBLIC "-//W3C//DTD SVG 1.1//EN"
 "http://www.w3.org/Graphics/SVG/1.1/DTD/svg11.dtd">
<!-- Generated by graphviz version 2.43.0 (0)
 -->
<!-- Title: src/emit/elf/emit_elf.c Pages: 1 -->
<!--zoomable 357 -->

<svg id="main" version="1.1" xmlns="http://www.w3.org/2000/svg" xmlns:xlink="http://www.w3.org/1999/xlink" xml:space="preserve" onload="init(evt)">
<style type="text/css"><![CDATA[
.node, .edge {opacity: 0.7;}
.node.selected, .edge.selected {opacity: 1;}
.edge:hover path { stroke: red; }
.edge:hover polygon { stroke: red; fill: red; }
]]></style>

<defs>
  <circle id="rim" cx="0" cy="0" r="7"/>
  <circle id="rim2" cx="0" cy="0" r="3.5"/>
  <g id="zoomPlus">
    <use xlink:href="#rim" fill="#404040"><set attributeName="fill" to="#808080" begin="zoomplus.mouseover" end="zoomplus.mouseout"/></use>
    <path d="M-4,0h8M0,-4v8" fill="none" stroke="white" stroke-width="1.5" pointer-events="none"/>
  </g>
  <g id="zoomMin">
    <use xlink:href="#rim" fill="#404040"><set attributeName="fill" to="#808080" begin="zoomminus.mouseover" end="zoomminus.mouseout"/></use>
    <path d="M-4,0h8" fill="none" stroke="white" stroke-width="1.5" pointer-events="none"/>
  </g>
  <g id="arrowUp" transform="translate(30 24)">
    <use xlink:href="#rim"/>
    <path pointer-events="none" fill="none" stroke="white" stroke-width="1.5" d="M0,-3.0v7 M-2.5,-0.5L0,-3.0L2.5,-0.5"/>
  </g>
  <g id="arrowRight" transform="rotate(90) translate(36 -43)">
    <use xlink:href="#rim"/>
    <path pointer-events="none" fill="none" stroke="white" stroke-width="1.5" d="M0,-3.0v7 M-2.5,-0.5L0,-3.0L2.5,-0.5"/>
  </g>
  <g id="arrowDown" transform="rotate(180) translate(-30 -48)">
    <use xlink:href="#rim"/>
    <path pointer-events="none" fill="none" stroke="white" stroke-width="1.5" d="M0,-3.0v7 M-2.5,-0.5L0,-3.0L2.5,-0.5"/>
  </g>
  <g id="arrowLeft" transform="rotate(270) translate(-36 17)">
    <use xlink:href="#rim"/>
    <path pointer-events="none" fill="none" stroke="white" stroke-width="1.5" d="M0,-3.0v7 M-2.5,-0.5L0,-3.0L2.5,-0.5"/>
  </g>
  <g id="resetDef">
    <use xlink:href="#rim2" fill="#404040"><set attributeName="fill" to="#808080" begin="reset.mouseover" end="reset.mouseout"/></use>
  </g>
</defs>
<script type="application/ecmascript">
var viewWidth = 805;
var viewHeight = 357;
var sectionId = 'dynsection-0';
</script>
<script type="application/ecmascript" xlink:href="svg.min.js"/>
<svg id="graph" class="graph">
<g id="viewport">
<title>src/emit/elf/emit_elf.c</title>
<!-- Node1 -->
<g id="Node000001" class="node">
<title>Node1</title>
<g id="a_Node000001"><a xlink:title="ELF (Executable and Linkable Format) binary format support.">
<polygon fill="#999999" stroke="#666666" points="575.5,-349 452.5,-349 452.5,-330 575.5,-330 575.5,-349"/>
<text text-anchor="middle" x="514" y="-337" font-family="Helvetica,sans-Serif" font-size="10.00">src/emit/elf/emit_elf.c</text>
</a>
</g>
</g>
<!-- Node2 -->
<g id="Node000002" class="node">
<title>Node2</title>
<g id="a_Node000002"><a xlink:href="emit__elf_8h.html" target="_top" xlink:title="ELF (Executable and Linkable Format) structures and constants.">
<polygon fill="white" stroke="#666666" points="77.5,-294 12.5,-294 12.5,-275 77.5,-275 77.5,-294"/>
<text text-anchor="middle" x="45" y="-282" font-family="Helvetica,sans-Serif" font-size="10.00">emit_elf.h</text>
</a>
</g>
</g>
<!-- Node1&#45;&gt;Node2 -->
<g id="edge1_Node000001_Node000002" class="edge">
<title>Node1&#45;&gt;Node2</title>
<g id="a_edge1_Node000001_Node000002"><a xlink:title=" ">
<path fill="none" stroke="#63b8ff" d="M452.32,-333.43C369.96,-326.34 219.63,-312.24 92,-294 90.54,-293.79 89.05,-293.57 87.55,-293.34"/>
<polygon fill="#63b8ff" stroke="#63b8ff" points="88,-289.87 77.57,-291.71 86.87,-296.77 88,-289.87"/>
</a>
</g>
</g>
<!-- Node5 -->
<g id="Node000005" class="node">
<title>Node5</title>
<g id="a_Node000005"><a xlink:href="emit__internals_8h.html" target="_top" xlink:title="Internal structures for the emit JIT code generation system.">
<polygon fill="white" stroke="#666666" points="445.5,-239 340.5,-239 340.5,-220 445.5,-220 445.5,-239"/>
<text text-anchor="middle" x="393" y="-227" font-family="Helvetica,sans-Serif" font-size="10.00">../emit_internals.h</text>
</a>
</g>
</g>
<!-- Node1&#45;&gt;Node5 -->
<g id="edge21_Node000001_Node000005" class="edge">
<title>Node1&#45;&gt;Node5</title>
<g id="a_edge21_Node000001_Node000005"><a xlink:title=" ">
<path fill="none" stroke="#63b8ff" d="M504.1,-329.66C483.52,-311.3 435.93,-268.81 410.22,-245.87"/>
<polygon fill="#63b8ff" stroke="#63b8ff" points="412.49,-243.21 402.7,-239.16 407.83,-248.43 412.49,-243.21"/>
</a>
</g>
</g>
<!-- Node6 -->
<g id="Node000006" class="node">
<title>Node6</title>
<g id="a_Node000006"><a xlink:href="emit_8h.html" target="_top" xlink:title="Public API for the emit JIT code generation system.">
<polygon fill="white" stroke="#666666" points="307.5,-129 204.5,-129 204.5,-110 307.5,-110 307.5,-129"/>
<text text-anchor="middle" x="256" y="-117" font-family="Helvetica,sans-Serif" font-size="10.00">pulse/emit/emit.h</text>
</a>
</g>
</g>
<!-- Node1&#45;&gt;Node6 -->
<g id="edge23_Node000001_Node000006" class="edge">
<title>Node1&#45;&gt;Node6</title>
<g id="a_edge23_Node000001_Node000006"><a xlink:title=" ">
<path fill="none" stroke="#63b8ff" d="M456.15,-329.96C379.7,-315.23 247.82,-277.09 189,-184 176.13,-163.64 201.47,-145.3 224.58,-133.62"/>
<polygon fill="#63b8ff" stroke="#63b8ff" points="226.38,-136.65 233.9,-129.19 223.37,-130.32 226.38,-136.65"/>
</a>
</g>
</g>
<!-- Node9 -->
<g id="Node000009" class="node">
<title>Node9</title>
<g id="a_Node000009"><a xlink:title=" ">
<polygon fill="#e0e0e0" stroke="#999999" points="485.5,-19 432.5,-19 432.5,0 485.5,0 485.5,-19"/>
<text text-anchor="middle" x="459" y="-7" font-family="Helvetica,sans-Serif" font-size="10.00">string.h</text>
</a>
</g>
</g>
<!-- Node1&#45;&gt;Node9 -->
<g id="edge26_Node000001_Node000009" class="edge">
<title>Node1&#45;&gt;Node9</title>
<g id="a_edge26_Node000001_Node000009"><a xlink:title=" ">
<path fill="none" stroke="#63b8ff" d="M522.12,-329.75C537.41,-312.29 569,-271.32 569,-230.5 569,-230.5 569,-230.5 569,-118.5 569,-73.07 520.64,-40.4 488.05,-23.55"/>
<polygon fill="#63b8ff" stroke="#63b8ff" points="489.43,-20.33 478.92,-19.02 486.32,-26.6 489.43,-20.33"/>
</a>
</g>
</g>
<!-- Node11 -->
<g id="Node000011" class="node">
<title>Node11</title>
<g id="a_Node000011"><a xlink:title=" ">
<polygon fill="#e0e0e0" stroke="#999999" points="540.5,-184 487.5,-184 487.5,-165 540.5,-165 540.5,-184"/>
<text text-anchor="middle" x="514" y="-172" font-family="Helvetica,sans-Serif" font-size="10.00">stdlib.h</text>
</a>
</g>
</g>
<!-- Node1&#45;&gt;Node11 -->
<g id="edge25_Node000001_Node000011" class="edge">
<title>Node1&#45;&gt;Node11</title>
<g id="a_edge25_Node000001_Node000011"><a xlink:title=" ">
<path fill="none" stroke="#63b8ff" d="M514,-329.74C514,-304.31 514,-230.08 514,-194.69"/>
<polygon fill="#63b8ff" stroke="#63b8ff" points="517.5,-194.31 514,-184.31 510.5,-194.31 517.5,-194.31"/>
</a>
</g>
</g>
<!-- Node12 -->
<g id="Node000012" class="node">
<title>Node12</title>
<g id="a_Node000012"><a xlink:title=" ">
<polygon fill="#e0e0e0" stroke="#999999" points="728.5,-294 597.5,-294 597.5,-275 728.5,-275 728.5,-294"/>
<text text-anchor="middle" x="663" y="-282" font-family="Helvetica,sans-Serif" font-size="10.00">common/compat_c23.h</text>
</a>
</g>
</g>
<!-- Node1&#45;&gt;Node12 -->
<g id="edge22_Node000001_Node000012" class="edge">
<title>Node1&#45;&gt;Node12</title>
<g id="a_edge22_Node000001_Node000012"><a xlink:title=" ">
<path fill="none" stroke="#63b8ff" d="M537.94,-329.98C562.56,-321.23 601.12,-307.51 628.92,-297.62"/>
<polygon fill="#63b8ff" stroke="#63b8ff" points="630.38,-300.82 638.62,-294.17 628.03,-294.22 630.38,-300.82"/>
</a>
</g>
</g>
<!-- Node13 -->
<g id="Node000013" class="node">
<title>Node13</title>
<g id="a_Node000013"><a xlink:title=" ">
<polygon fill="#e0e0e0" stroke="#999999" points="797,-294 747,-294 747,-275 797,-275 797,-294"/>
<text text-anchor="middle" x="772" y="-282" font-family="Helvetica,sans-Serif" font-size="10.00">stdio.h</text>
</a>
</g>
</g>
<!-- Node1&#45;&gt;Node13 -->
<g id="edge24_Node000001_Node000013" class="edge">
<title>Node1&#45;&gt;Node13</title>
<g id="a_edge24_Node000001_Node000013"><a xlink:title=" ">
<path fill="none" stroke="#63b8ff" d="M560.47,-329.95C603.74,-321.84 670.27,-308.98 736.95,-294.15"/>
<polygon fill="#63b8ff" stroke="#63b8ff" points="737.79,-297.55 746.78,-291.95 736.26,-290.72 737.79,-297.55"/>
</a>
</g>
</g>
<!-- Node3 -->
<g id="Node000003" class="node">
<title>Node3</title>
<g id="a_Node000003"><a xlink:title=" ">
<polygon fill="#e0e0e0" stroke="#999999" points="56,-19 0,-19 0,0 56,0 56,-19"/>
<text text-anchor="middle" x="28" y="-7" font-family="Helvetica,sans-Serif" font-size="10.00">stddef.h</text>
</a>
</g>
</g>
<!-- Node2&#45;&gt;Node3 -->
<g id="edge2_Node000002_Node000003" class="edge">
<title>Node2&#45;&gt;Node3</title>
<g id="a_edge2_Node000002_Node000003"><a xlink:title=" ">
<path fill="none" stroke="#63b8ff" d="M39.72,-274.9C29.27,-257.07 7,-214.46 7,-175.5 7,-175.5 7,-175.5 7,-118.5 7,-86.46 16.02,-50.03 22.23,-28.73"/>
<polygon fill="#63b8ff" stroke="#63b8ff" points="25.61,-29.65 25.17,-19.07 18.91,-27.62 25.61,-29.65"/>
</a>
</g>
</g>
<!-- Node4 -->
<g id="Node000004" class="node">
<title>Node4</title>
<g id="a_Node000004"><a xlink:title=" ">
<polygon fill="#e0e0e0" stroke="#999999" points="147.5,-19 94.5,-19 94.5,0 147.5,0 147.5,-19"/>
<text text-anchor="middle" x="121" y="-7" font-family="Helvetica,sans-Serif" font-size="10.00">stdint.h</text>
</a>
</g>
</g>
<!-- Node2&#45;&gt;Node4 -->
<g id="edge3_Node000002_Node000004" class="edge">
<title>Node2&#45;&gt;Node4</title>
<g id="a_edge3_Node000002_Node000004"><a xlink:title=" ">
<path fill="none" stroke="#63b8ff" d="M45,-274.82C45,-256.48 45,-212.44 45,-175.5 45,-175.5 45,-175.5 45,-118.5 45,-79.47 78.61,-44.58 101.13,-25.6"/>
<polygon fill="#63b8ff" stroke="#63b8ff" points="103.56,-28.14 109.12,-19.12 99.15,-22.7 103.56,-28.14"/>
</a>
</g>
</g>
<!-- Node2&#45;&gt;Node5 -->
<g id="edge4_Node000002_Node000005" class="edge">
<title>Node2&#45;&gt;Node5</title>
<g id="a_edge4_Node000002_Node000005"><a xlink:title=" ">
<path fill="none" stroke="#63b8ff" d="M77.74,-278.51C135.43,-269.73 256.09,-251.35 330.28,-240.05"/>
<polygon fill="#63b8ff" stroke="#63b8ff" points="331.06,-243.47 340.42,-238.51 330.01,-236.55 331.06,-243.47"/>
</a>
</g>
</g>
<!-- Node5&#45;&gt;Node4 -->
<g id="edge18_Node000005_Node000004" class="edge">
<title>Node5&#45;&gt;Node4</title>
<g id="a_edge18_Node000005_Node000004"><a xlink:title=" ">
<path fill="none" stroke="#63b8ff" d="M340.41,-222.43C287.93,-215.45 211.91,-202.51 189,-184 140.17,-144.56 126.3,-65.26 122.44,-29.16"/>
<polygon fill="#63b8ff" stroke="#63b8ff" points="125.91,-28.7 121.51,-19.06 118.94,-29.34 125.91,-28.7"/>
</a>
</g>
</g>
<!-- Node5&#45;&gt;Node6 -->
<g id="edge5_Node000005_Node000006" class="edge">
<title>Node5&#45;&gt;Node6</title>
<g id="a_edge5_Node000005_Node000006"><a xlink:title=" ">
<path fill="none" stroke="#63b8ff" d="M387.52,-219.75C378.91,-206.56 361.11,-181.38 341,-165 324.91,-151.9 304.36,-141.01 287.49,-133.29"/>
<polygon fill="#63b8ff" stroke="#63b8ff" points="288.61,-129.95 278.05,-129.11 285.78,-136.36 288.61,-129.95"/>
</a>
</g>
</g>
<!-- Node8 -->
<g id="Node000008" class="node">
<title>Node8</title>
<g id="a_Node000008"><a xlink:title=" ">
<polygon fill="#e0e0e0" stroke="#999999" points="395,-19 333,-19 333,0 395,0 395,-19"/>
<text text-anchor="middle" x="364" y="-7" font-family="Helvetica,sans-Serif" font-size="10.00">stdbool.h</text>
</a>
</g>
</g>
<!-- Node5&#45;&gt;Node8 -->
<g id="edge17_Node000005_Node000008" class="edge">
<title>Node5&#45;&gt;Node8</title>
<g id="a_edge17_Node000005_Node000008"><a xlink:title=" ">
<path fill="none" stroke="#63b8ff" d="M391.86,-219.95C387.61,-187.95 372.54,-74.68 366.51,-29.4"/>
<polygon fill="#63b8ff" stroke="#63b8ff" points="369.95,-28.67 365.16,-19.22 363.01,-29.6 369.95,-28.67"/>
</a>
</g>
</g>
<!-- Node5&#45;&gt;Node9 -->
<g id="edge20_Node000005_Node000009" class="edge">
<title>Node5&#45;&gt;Node9</title>
<g id="a_edge20_Node000005_Node000009"><a xlink:title=" ">
<path fill="none" stroke="#63b8ff" d="M395.59,-219.95C405.32,-187.81 439.86,-73.72 453.45,-28.83"/>
<polygon fill="#63b8ff" stroke="#63b8ff" points="456.81,-29.81 456.36,-19.22 450.11,-27.78 456.81,-29.81"/>
</a>
</g>
</g>
<!-- Node10 -->
<g id="Node000010" class="node">
<title>Node10</title>
<g id="a_Node000010"><a xlink:href="emit__math_8h.html" target="_top" xlink:title="Math operations for JIT code generation.">
<polygon fill="white" stroke="#666666" points="332,-184 198,-184 198,-165 332,-165 332,-184"/>
<text text-anchor="middle" x="265" y="-172" font-family="Helvetica,sans-Serif" font-size="10.00">pulse/emit/emit_math.h</text>
</a>
</g>
</g>
<!-- Node5&#45;&gt;Node10 -->
<g id="edge13_Node000005_Node000010" class="edge">
<title>Node5&#45;&gt;Node10</title>
<g id="a_edge13_Node000005_Node000010"><a xlink:title=" ">
<path fill="none" stroke="#63b8ff" d="M372.43,-219.98C351.57,-211.34 319.03,-197.87 295.23,-188.02"/>
<polygon fill="#63b8ff" stroke="#63b8ff" points="296.52,-184.76 285.94,-184.17 293.84,-191.23 296.52,-184.76"/>
</a>
</g>
</g>
<!-- Node5&#45;&gt;Node11 -->
<g id="edge19_Node000005_Node000011" class="edge">
<title>Node5&#45;&gt;Node11</title>
<g id="a_edge19_Node000005_Node000011"><a xlink:title=" ">
<path fill="none" stroke="#63b8ff" d="M412.44,-219.98C431.99,-211.42 462.38,-198.11 484.82,-188.28"/>
<polygon fill="#63b8ff" stroke="#63b8ff" points="486.45,-191.39 494.21,-184.17 483.64,-184.98 486.45,-191.39"/>
</a>
</g>
</g>
<!-- Node6&#45;&gt;Node4 -->
<g id="edge12_Node000006_Node000004" class="edge">
<title>Node6&#45;&gt;Node4</title>
<g id="a_edge12_Node000006_Node000004"><a xlink:title=" ">
<path fill="none" stroke="#63b8ff" d="M237.3,-109.96C220.8,-101.95 196.56,-88.98 178,-74 160.79,-60.11 144.26,-40.83 133.48,-27.16"/>
<polygon fill="#63b8ff" stroke="#63b8ff" points="136.15,-24.89 127.27,-19.11 130.61,-29.16 136.15,-24.89"/>
</a>
</g>
</g>
<!-- Node7 -->
<g id="Node000007" class="node">
<title>Node7</title>
<g id="a_Node000007"><a xlink:href="pulse__common_8h.html" target="_top" xlink:title="Common types and definitions shared across the pulse library.">
<polygon fill="white" stroke="#666666" points="316.5,-74 187.5,-74 187.5,-55 316.5,-55 316.5,-74"/>
<text text-anchor="middle" x="252" y="-62" font-family="Helvetica,sans-Serif" font-size="10.00">pulse/pulse_common.h</text>
</a>
</g>
</g>
<!-- Node6&#45;&gt;Node7 -->
<g id="edge6_Node000006_Node000007" class="edge">
<title>Node6&#45;&gt;Node7</title>
<g id="a_edge6_Node000006_Node000007"><a xlink:title=" ">
<path fill="none" stroke="#63b8ff" d="M255.34,-109.75C254.82,-102.8 254.06,-92.85 253.41,-84.13"/>
<polygon fill="#63b8ff" stroke="#63b8ff" points="256.89,-83.8 252.65,-74.09 249.91,-84.32 256.89,-83.8"/>
</a>
</g>
</g>
<!-- Node6&#45;&gt;Node8 -->
<g id="edge11_Node000006_Node000008" class="edge">
<title>Node6&#45;&gt;Node8</title>
<g id="a_edge11_Node000006_Node000008"><a xlink:title=" ">
<path fill="none" stroke="#63b8ff" d="M273.71,-109.95C288.65,-102.1 309.95,-89.39 325,-74 338.12,-60.59 348.89,-41.99 355.77,-28.39"/>
<polygon fill="#63b8ff" stroke="#63b8ff" points="359.04,-29.66 360.24,-19.13 352.74,-26.61 359.04,-29.66"/>
</a>
</g>
</g>
<!-- Node7&#45;&gt;Node3 -->
<g id="edge8_Node000007_Node000003" class="edge">
<title>Node7&#45;&gt;Node3</title>
<g id="a_edge8_Node000007_Node000003"><a xlink:title=" ">
<path fill="none" stroke="#63b8ff" d="M216.01,-54.98C174.88,-45.25 107.86,-29.39 65.93,-19.47"/>
<polygon fill="#63b8ff" stroke="#63b8ff" points="66.64,-16.05 56.1,-17.15 65.03,-22.86 66.64,-16.05"/>
</a>
</g>
</g>
<!-- Node7&#45;&gt;Node4 -->
<g id="edge9_Node000007_Node000004" class="edge">
<title>Node7&#45;&gt;Node4</title>
<g id="a_edge9_Node000007_Node000004"><a xlink:title=" ">
<path fill="none" stroke="#63b8ff" d="M230.95,-54.98C209.59,-46.34 176.3,-32.87 151.94,-23.02"/>
<polygon fill="#63b8ff" stroke="#63b8ff" points="153.01,-19.68 142.43,-19.17 150.39,-26.17 153.01,-19.68"/>
</a>
</g>
</g>
<!-- Node7&#45;&gt;Node8 -->
<g id="edge7_Node000007_Node000008" class="edge">
<title>Node7&#45;&gt;Node8</title>
<g id="a_edge7_Node000007_Node000008"><a xlink:title=" ">
<path fill="none" stroke="#63b8ff" d="M269.99,-54.98C287.93,-46.5 315.72,-33.35 336.43,-23.54"/>
<polygon fill="#63b8ff" stroke="#63b8ff" points="338.14,-26.61 345.68,-19.17 335.14,-20.28 338.14,-26.61"/>
</a>
</g>
</g>
<!-- Node7&#45;&gt;Node9 -->
<g id="edge10_Node000007_Node000009" class="edge">
<title>Node7&#45;&gt;Node9</title>
<g id="a_edge10_Node000007_Node000009"><a xlink:title=" ">
<path fill="none" stroke="#63b8ff" d="M285.26,-54.98C322.82,-45.37 383.74,-29.77 422.56,-19.83"/>
<polygon fill="#63b8ff" stroke="#63b8ff" points="423.59,-23.18 432.41,-17.31 421.85,-16.4 423.59,-23.18"/>
</a>
</g>
</g>
<!-- Node10&#45;&gt;Node4 -->
<g id="edge16_Node000010_Node000004" class="edge">
<title>Node10&#45;&gt;Node4</title>
<g id="a_edge16_Node000010_Node000004"><a xlink:title=" ">
<path fill="none" stroke="#63b8ff" d="M247.58,-164.9C232.57,-156.94 210.86,-144.08 195,-129 163.78,-99.32 140.26,-53.78 128.78,-28.67"/>
<polygon fill="#63b8ff" stroke="#63b8ff" points="131.87,-27 124.61,-19.27 125.47,-29.83 131.87,-27"/>
</a>
</g>
</g>
<!-- Node10&#45;&gt;Node6 -->
<g id="edge14_Node000010_Node000006" class="edge">
<title>Node10&#45;&gt;Node6</title>
<g id="a_edge14_Node000010_Node000006"><a xlink:title=" ">
<path fill="none" stroke="#63b8ff" d="M263.51,-164.75C262.33,-157.8 260.64,-147.85 259.16,-139.13"/>
<polygon fill="#63b8ff" stroke="#63b8ff" points="262.58,-138.36 257.46,-129.09 255.68,-139.53 262.58,-138.36"/>
</a>
</g>
</g>
<!-- Node10&#45;&gt;Node8 -->
<g id="edge15_Node000010_Node000008" class="edge">
<title>Node10&#45;&gt;Node8</title>
<g id="a_edge15_Node000010_Node000008"><a xlink:title=" ">
<path fill="none" stroke="#63b8ff" d="M276.97,-164.94C288.02,-156.63 304.43,-143.22 316,-129 333.72,-107.24 336.4,-99.98 347,-74 352.94,-59.45 357.4,-42.19 360.27,-29.33"/>
<polygon fill="#63b8ff" stroke="#63b8ff" points="363.73,-29.86 362.36,-19.35 356.88,-28.42 363.73,-29.86"/>
</a>
</g>
</g>
</g>
</svg>

<g id="navigator" transform="translate(0 0)" fill="#404254">
  <rect fill="#f2f5e9" fill-opacity="0.5" stroke="#606060" stroke-width=".5" x="0" y="0" width="60" height="60"/>
  <use id="zoomplus" xlink:href="#zoomPlus" x="17" y="9" onmousedown="handleZoom(evt,'in')"/>
  <use id="zoomminus" xlink:href="#zoomMin" x="42" y="9" onmousedown="handleZoom(evt,'out')"/>
  <use id="reset" xlink:href="#resetDef" x="30" y="36" onmousedown="handleReset()"/>
   <use id="arrowup" xlink:href="#arrowUp" x="0" y="0" onmousedown="handlePan(0,-1)"/>
  <use id="arrowright" xlink:href="#arrowRight" x="0" y="0" onmousedown="handlePan(1,0)"/>
  <use id="arrowdown" xlink:href="#arrowDown" x="0" y="0" onmousedown="handlePan(0,1)"/>
  <use id="arrowleft" xlink:href="#arrowLeft" x="0" y="0" onmousedown="handlePan(-1,0)"/>
</g>
<svg viewBox="0 0 15 15" width="100%" height="30px" preserveAspectRatio="xMaxYMin meet">
 <g id="arrow_out" transform="scale(0.3 0.3)">
  <a xlink:href="emit__elf_8c__incl_org.svg" target="_base">
   <rect id="button" ry="5" rx="5" y="6" x="6" height="38" width="38"
        fill="#f2f5e9" fill-opacity="0.5" stroke="#606060" stroke-width="1.0"/>
   <path id="arrow"
     d="M 11.500037,31.436501 C 11.940474,20.09759 22.043105,11.32322 32.158766,21.979434 L 37.068811,17.246167 C 37.068811,17.246167 37.088388,32 37.088388,32 L 22.160133,31.978069 C 22.160133,31.978069 26.997745,27.140456 26.997745,27.140456 C 18.528582,18.264221 13.291696,25.230495 11.500037,31.436501 z"
     style="fill:#404040;"/>
  </a>
 </g>
</svg>

<style type='text/css'>
<![CDATA[
[data-mouse-over-selected='false'] { opacity: 0.7; }
[data-mouse-over-selected='true']  { opacity: 1.0; }
]]>
</style>
<script type="application/ecmascript"><![CDATA[
document.addEventListener('DOMContentLoaded', (event) => {
  highlightEdges();
  highlightAdjacentNodes();
});
]]></script>
</svg>
