<?xml version="1.0" encoding="UTF-8" standalone="no"?>
<!DOCTYPE svg PUBLIC "-//W3C//DTD SVG 1.1//EN"
 "http://www.w3.org/Graphics/SVG/1.1/DTD/svg11.dtd">
<!-- Generated by graphviz version 2.43.0 (0)
 -->
<!-- Title: src/emit/pe/emit_pe.c Pages: 1 -->
<!--zoomable 302 -->

<svg id="main" version="1.1" xmlns="http://www.w3.org/2000/svg" xmlns:xlink="http://www.w3.org/1999/xlink" xml:space="preserve" onload="init(evt)">
<style type="text/css"><![CDATA[
.node, .edge {opacity: 0.7;}
.node.selected, .edge.selected {opacity: 1;}
.edge:hover path { stroke: red; }
.edge:hover polygon { stroke: red; fill: red; }
]]></style>

<defs>
  <circle id="rim" cx="0" cy="0" r="7"/>
  <circle id="rim2" cx="0" cy="0" r="3.5"/>
  <g id="zoomPlus">
    <use xlink:href="#rim" fill="#404040"><set attributeName="fill" to="#808080" begin="zoomplus.mouseover" end="zoomplus.mouseout"/></use>
    <path d="M-4,0h8M0,-4v8" fill="none" stroke="white" stroke-width="1.5" pointer-events="none"/>
  </g>
  <g id="zoomMin">
    <use xlink:href="#rim" fill="#404040"><set attributeName="fill" to="#808080" begin="zoomminus.mouseover" end="zoomminus.mouseout"/></use>
    <path d="M-4,0h8" fill="none" stroke="white" stroke-width="1.5" pointer-events="none"/>
  </g>
  <g id="arrowUp" transform="translate(30 24)">
    <use xlink:href="#rim"/>
    <path pointer-events="none" fill="none" stroke="white" stroke-width="1.5" d="M0,-3.0v7 M-2.5,-0.5L0,-3.0L2.5,-0.5"/>
  </g>
  <g id="arrowRight" transform="rotate(90) translate(36 -43)">
    <use xlink:href="#rim"/>
    <path pointer-events="none" fill="none" stroke="white" stroke-width="1.5" d="M0,-3.0v7 M-2.5,-0.5L0,-3.0L2.5,-0.5"/>
  </g>
  <g id="arrowDown" transform="rotate(180) translate(-30 -48)">
    <use xlink:href="#rim"/>
    <path pointer-events="none" fill="none" stroke="white" stroke-width="1.5" d="M0,-3.0v7 M-2.5,-0.5L0,-3.0L2.5,-0.5"/>
  </g>
  <g id="arrowLeft" transform="rotate(270) translate(-36 17)">
    <use xlink:href="#rim"/>
    <path pointer-events="none" fill="none" stroke="white" stroke-width="1.5" d="M0,-3.0v7 M-2.5,-0.5L0,-3.0L2.5,-0.5"/>
  </g>
  <g id="resetDef">
    <use xlink:href="#rim2" fill="#404040"><set attributeName="fill" to="#808080" begin="reset.mouseover" end="reset.mouseout"/></use>
  </g>
</defs>
<script type="application/ecmascript">
var viewWidth = 631;
var viewHeight = 302;
var sectionId = 'dynsection-0';
</script>
<script type="application/ecmascript" xlink:href="svg.min.js"/>
<svg id="graph" class="graph">
<g id="viewport">
<title>src/emit/pe/emit_pe.c</title>
<!-- Node1 -->
<g id="Node000001" class="node">
<title>Node1</title>
<g id="a_Node000001"><a xlink:title="PE (Portable Executable) binary format support for emit system.">
<polygon fill="#999999" stroke="#666666" points="349,-294 227,-294 227,-275 349,-275 349,-294"/>
<text text-anchor="middle" x="288" y="-282" font-family="Helvetica,sans-Serif" font-size="10.00">src/emit/pe/emit_pe.c</text>
</a>
</g>
</g>
<!-- Node2 -->
<g id="Node000002" class="node">
<title>Node2</title>
<g id="a_Node000002"><a xlink:href="emit__pe_8h.html" target="_top" xlink:title="PE (Portable Executable) format writer for Windows.">
<polygon fill="white" stroke="#666666" points="93.5,-184 28.5,-184 28.5,-165 93.5,-165 93.5,-184"/>
<text text-anchor="middle" x="61" y="-172" font-family="Helvetica,sans-Serif" font-size="10.00">emit_pe.h</text>
</a>
</g>
</g>
<!-- Node1&#45;&gt;Node2 -->
<g id="edge1_Node000001_Node000002" class="edge">
<title>Node1&#45;&gt;Node2</title>
<g id="a_edge1_Node000001_Node000002"><a xlink:title=" ">
<path fill="none" stroke="#63b8ff" d="M226.68,-278.82C189.75,-273.58 143.22,-262.48 108,-239 90.94,-227.63 77.78,-207.88 69.78,-193.42"/>
<polygon fill="#63b8ff" stroke="#63b8ff" points="72.81,-191.67 65.08,-184.42 66.6,-194.91 72.81,-191.67"/>
</a>
</g>
</g>
<!-- Node3 -->
<g id="Node000003" class="node">
<title>Node3</title>
<g id="a_Node000003"><a xlink:href="emit_8h.html" target="_top" xlink:title="Public API for the emit JIT code generation system.">
<polygon fill="white" stroke="#666666" points="245.5,-129 142.5,-129 142.5,-110 245.5,-110 245.5,-129"/>
<text text-anchor="middle" x="194" y="-117" font-family="Helvetica,sans-Serif" font-size="10.00">pulse/emit/emit.h</text>
</a>
</g>
</g>
<!-- Node1&#45;&gt;Node3 -->
<g id="edge21_Node000001_Node000003" class="edge">
<title>Node1&#45;&gt;Node3</title>
<g id="a_edge21_Node000001_Node000003"><a xlink:title=" ">
<path fill="none" stroke="#63b8ff" d="M241.84,-275C221.4,-268.69 199.25,-257.78 187,-239 167.09,-208.47 178.03,-163.58 186.69,-138.73"/>
<polygon fill="#63b8ff" stroke="#63b8ff" points="190.06,-139.72 190.29,-129.13 183.5,-137.27 190.06,-139.72"/>
</a>
</g>
</g>
<!-- Node8 -->
<g id="Node000008" class="node">
<title>Node8</title>
<g id="a_Node000008"><a xlink:title=" ">
<polygon fill="#e0e0e0" stroke="#999999" points="76.5,-19 23.5,-19 23.5,0 76.5,0 76.5,-19"/>
<text text-anchor="middle" x="50" y="-7" font-family="Helvetica,sans-Serif" font-size="10.00">string.h</text>
</a>
</g>
</g>
<!-- Node1&#45;&gt;Node8 -->
<g id="edge24_Node000001_Node000008" class="edge">
<title>Node1&#45;&gt;Node8</title>
<g id="a_edge24_Node000001_Node000008"><a xlink:title=" ">
<path fill="none" stroke="#63b8ff" d="M226.9,-277.17C185.18,-271.2 129.45,-259.9 84,-239 41.48,-219.45 0,-222.3 0,-175.5 0,-175.5 0,-175.5 0,-118.5 0,-83.56 21.82,-47.66 36.63,-27.31"/>
<polygon fill="#63b8ff" stroke="#63b8ff" points="39.59,-29.2 42.84,-19.11 34.01,-24.97 39.59,-29.2"/>
</a>
</g>
</g>
<!-- Node9 -->
<g id="Node000009" class="node">
<title>Node9</title>
<g id="a_Node000009"><a xlink:href="emit__internals_8h.html" target="_top" xlink:title="Internal structures for the emit JIT code generation system.">
<polygon fill="white" stroke="#666666" points="300.5,-239 195.5,-239 195.5,-220 300.5,-220 300.5,-239"/>
<text text-anchor="middle" x="248" y="-227" font-family="Helvetica,sans-Serif" font-size="10.00">../emit_internals.h</text>
</a>
</g>
</g>
<!-- Node1&#45;&gt;Node9 -->
<g id="edge10_Node000001_Node000009" class="edge">
<title>Node1&#45;&gt;Node9</title>
<g id="a_edge10_Node000001_Node000009"><a xlink:title=" ">
<path fill="none" stroke="#63b8ff" d="M281.39,-274.75C275.74,-267.26 267.46,-256.28 260.55,-247.13"/>
<polygon fill="#63b8ff" stroke="#63b8ff" points="263.3,-244.96 254.48,-239.09 257.71,-249.18 263.3,-244.96"/>
</a>
</g>
</g>
<!-- Node11 -->
<g id="Node000011" class="node">
<title>Node11</title>
<g id="a_Node000011"><a xlink:title=" ">
<polygon fill="#e0e0e0" stroke="#999999" points="507.5,-184 454.5,-184 454.5,-165 507.5,-165 507.5,-184"/>
<text text-anchor="middle" x="481" y="-172" font-family="Helvetica,sans-Serif" font-size="10.00">stdlib.h</text>
</a>
</g>
</g>
<!-- Node1&#45;&gt;Node11 -->
<g id="edge23_Node000001_Node000011" class="edge">
<title>Node1&#45;&gt;Node11</title>
<g id="a_edge23_Node000001_Node000011"><a xlink:title=" ">
<path fill="none" stroke="#63b8ff" d="M294.13,-274.83C304.13,-261.28 325.25,-235.07 349,-220 365.05,-209.82 411.18,-195.35 444.39,-185.71"/>
<polygon fill="#63b8ff" stroke="#63b8ff" points="445.58,-189.01 454.23,-182.88 443.65,-182.28 445.58,-189.01"/>
</a>
</g>
</g>
<!-- Node12 -->
<g id="Node000012" class="node">
<title>Node12</title>
<g id="a_Node000012"><a xlink:title=" ">
<polygon fill="#e0e0e0" stroke="#999999" points="488.5,-239 357.5,-239 357.5,-220 488.5,-220 488.5,-239"/>
<text text-anchor="middle" x="423" y="-227" font-family="Helvetica,sans-Serif" font-size="10.00">common/compat_c23.h</text>
</a>
</g>
</g>
<!-- Node1&#45;&gt;Node12 -->
<g id="edge20_Node000001_Node000012" class="edge">
<title>Node1&#45;&gt;Node12</title>
<g id="a_edge20_Node000001_Node000012"><a xlink:title=" ">
<path fill="none" stroke="#63b8ff" d="M309.69,-274.98C331.8,-266.3 366.32,-252.75 391.45,-242.88"/>
<polygon fill="#63b8ff" stroke="#63b8ff" points="392.89,-246.08 400.92,-239.17 390.33,-239.57 392.89,-246.08"/>
</a>
</g>
</g>
<!-- Node13 -->
<g id="Node000013" class="node">
<title>Node13</title>
<g id="a_Node000013"><a xlink:title=" ">
<polygon fill="#e0e0e0" stroke="#999999" points="557,-239 507,-239 507,-220 557,-220 557,-239"/>
<text text-anchor="middle" x="532" y="-227" font-family="Helvetica,sans-Serif" font-size="10.00">stdio.h</text>
</a>
</g>
</g>
<!-- Node1&#45;&gt;Node13 -->
<g id="edge22_Node000001_Node000013" class="edge">
<title>Node1&#45;&gt;Node13</title>
<g id="a_edge22_Node000001_Node000013"><a xlink:title=" ">
<path fill="none" stroke="#63b8ff" d="M330.33,-275C370.74,-266.78 433.57,-253.72 497,-239.17"/>
<polygon fill="#63b8ff" stroke="#63b8ff" points="497.82,-242.57 506.77,-236.91 496.24,-235.75 497.82,-242.57"/>
</a>
</g>
</g>
<!-- Node14 -->
<g id="Node000014" class="node">
<title>Node14</title>
<g id="a_Node000014"><a xlink:title=" ">
<polygon fill="#e0e0e0" stroke="#999999" points="623,-239 575,-239 575,-220 623,-220 623,-239"/>
<text text-anchor="middle" x="599" y="-227" font-family="Helvetica,sans-Serif" font-size="10.00">time.h</text>
</a>
</g>
</g>
<!-- Node1&#45;&gt;Node14 -->
<g id="edge25_Node000001_Node000014" class="edge">
<title>Node1&#45;&gt;Node14</title>
<g id="a_edge25_Node000001_Node000014"><a xlink:title=" ">
<path fill="none" stroke="#63b8ff" d="M349.04,-275.4C403.25,-267.83 484.8,-255.52 564.67,-239.11"/>
<polygon fill="#63b8ff" stroke="#63b8ff" points="565.83,-242.44 574.91,-236.98 564.41,-235.59 565.83,-242.44"/>
</a>
</g>
</g>
<!-- Node2&#45;&gt;Node3 -->
<g id="edge2_Node000002_Node000003" class="edge">
<title>Node2&#45;&gt;Node3</title>
<g id="a_edge2_Node000002_Node000003"><a xlink:title=" ">
<path fill="none" stroke="#63b8ff" d="M82.37,-164.98C104.15,-156.3 138.16,-142.75 162.92,-132.88"/>
<polygon fill="#63b8ff" stroke="#63b8ff" points="164.25,-136.12 172.24,-129.17 161.66,-129.62 164.25,-136.12"/>
</a>
</g>
</g>
<!-- Node4 -->
<g id="Node000004" class="node">
<title>Node4</title>
<g id="a_Node000004"><a xlink:href="pulse__common_8h.html" target="_top" xlink:title="Common types and definitions shared across the pulse library.">
<polygon fill="white" stroke="#666666" points="207.5,-74 78.5,-74 78.5,-55 207.5,-55 207.5,-74"/>
<text text-anchor="middle" x="143" y="-62" font-family="Helvetica,sans-Serif" font-size="10.00">pulse/pulse_common.h</text>
</a>
</g>
</g>
<!-- Node3&#45;&gt;Node4 -->
<g id="edge3_Node000003_Node000004" class="edge">
<title>Node3&#45;&gt;Node4</title>
<g id="a_edge3_Node000003_Node000004"><a xlink:title=" ">
<path fill="none" stroke="#63b8ff" d="M185.58,-109.75C178.23,-102.11 167.37,-90.82 158.46,-81.56"/>
<polygon fill="#63b8ff" stroke="#63b8ff" points="160.72,-78.87 151.26,-74.09 155.68,-83.72 160.72,-78.87"/>
</a>
</g>
</g>
<!-- Node5 -->
<g id="Node000005" class="node">
<title>Node5</title>
<g id="a_Node000005"><a xlink:title=" ">
<polygon fill="#e0e0e0" stroke="#999999" points="276,-19 214,-19 214,0 276,0 276,-19"/>
<text text-anchor="middle" x="245" y="-7" font-family="Helvetica,sans-Serif" font-size="10.00">stdbool.h</text>
</a>
</g>
</g>
<!-- Node3&#45;&gt;Node5 -->
<g id="edge8_Node000003_Node000005" class="edge">
<title>Node3&#45;&gt;Node5</title>
<g id="a_edge8_Node000003_Node000005"><a xlink:title=" ">
<path fill="none" stroke="#63b8ff" d="M198.74,-109.72C203.51,-100.8 211,-86.55 217,-74 224.23,-58.89 231.87,-41.45 237.34,-28.68"/>
<polygon fill="#63b8ff" stroke="#63b8ff" points="240.67,-29.78 241.36,-19.2 234.23,-27.04 240.67,-29.78"/>
</a>
</g>
</g>
<!-- Node7 -->
<g id="Node000007" class="node">
<title>Node7</title>
<g id="a_Node000007"><a xlink:title=" ">
<polygon fill="#e0e0e0" stroke="#999999" points="366.5,-19 313.5,-19 313.5,0 366.5,0 366.5,-19"/>
<text text-anchor="middle" x="340" y="-7" font-family="Helvetica,sans-Serif" font-size="10.00">stdint.h</text>
</a>
</g>
</g>
<!-- Node3&#45;&gt;Node7 -->
<g id="edge9_Node000003_Node000007" class="edge">
<title>Node3&#45;&gt;Node7</title>
<g id="a_edge9_Node000003_Node000007"><a xlink:title=" ">
<path fill="none" stroke="#63b8ff" d="M205.7,-109.84C230.58,-91.44 288.99,-48.23 319.94,-25.34"/>
<polygon fill="#63b8ff" stroke="#63b8ff" points="322.29,-27.96 328.24,-19.2 318.12,-22.33 322.29,-27.96"/>
</a>
</g>
</g>
<!-- Node4&#45;&gt;Node5 -->
<g id="edge4_Node000004_Node000005" class="edge">
<title>Node4&#45;&gt;Node5</title>
<g id="a_edge4_Node000004_Node000005"><a xlink:title=" ">
<path fill="none" stroke="#63b8ff" d="M159.39,-54.98C175.57,-46.57 200.57,-33.59 219.38,-23.81"/>
<polygon fill="#63b8ff" stroke="#63b8ff" points="221.05,-26.89 228.31,-19.17 217.83,-20.68 221.05,-26.89"/>
</a>
</g>
</g>
<!-- Node6 -->
<g id="Node000006" class="node">
<title>Node6</title>
<g id="a_Node000006"><a xlink:title=" ">
<polygon fill="#e0e0e0" stroke="#999999" points="171,-19 115,-19 115,0 171,0 171,-19"/>
<text text-anchor="middle" x="143" y="-7" font-family="Helvetica,sans-Serif" font-size="10.00">stddef.h</text>
</a>
</g>
</g>
<!-- Node4&#45;&gt;Node6 -->
<g id="edge5_Node000004_Node000006" class="edge">
<title>Node4&#45;&gt;Node6</title>
<g id="a_edge5_Node000004_Node000006"><a xlink:title=" ">
<path fill="none" stroke="#63b8ff" d="M143,-54.75C143,-47.8 143,-37.85 143,-29.13"/>
<polygon fill="#63b8ff" stroke="#63b8ff" points="146.5,-29.09 143,-19.09 139.5,-29.09 146.5,-29.09"/>
</a>
</g>
</g>
<!-- Node4&#45;&gt;Node7 -->
<g id="edge6_Node000004_Node000007" class="edge">
<title>Node4&#45;&gt;Node7</title>
<g id="a_edge6_Node000004_Node000007"><a xlink:title=" ">
<path fill="none" stroke="#63b8ff" d="M174.65,-54.98C209.85,-45.52 266.6,-30.25 303.6,-20.29"/>
<polygon fill="#63b8ff" stroke="#63b8ff" points="304.73,-23.61 313.48,-17.63 302.91,-16.85 304.73,-23.61"/>
</a>
</g>
</g>
<!-- Node4&#45;&gt;Node8 -->
<g id="edge7_Node000004_Node000008" class="edge">
<title>Node4&#45;&gt;Node8</title>
<g id="a_edge7_Node000004_Node000008"><a xlink:title=" ">
<path fill="none" stroke="#63b8ff" d="M128.06,-54.98C113.5,-46.69 91.13,-33.94 74.07,-24.22"/>
<polygon fill="#63b8ff" stroke="#63b8ff" points="75.64,-21.08 65.21,-19.17 72.17,-27.16 75.64,-21.08"/>
</a>
</g>
</g>
<!-- Node9&#45;&gt;Node3 -->
<g id="edge11_Node000009_Node000003" class="edge">
<title>Node9&#45;&gt;Node3</title>
<g id="a_edge11_Node000009_Node000003"><a xlink:title=" ">
<path fill="none" stroke="#63b8ff" d="M240.86,-219.74C234.05,-211.06 223.84,-197.21 217,-184 209.42,-169.36 203.22,-151.64 199.18,-138.65"/>
<polygon fill="#63b8ff" stroke="#63b8ff" points="202.52,-137.6 196.31,-129.01 195.81,-139.59 202.52,-137.6"/>
</a>
</g>
</g>
<!-- Node9&#45;&gt;Node5 -->
<g id="edge16_Node000009_Node000005" class="edge">
<title>Node9&#45;&gt;Node5</title>
<g id="a_edge16_Node000009_Node000005"><a xlink:title=" ">
<path fill="none" stroke="#63b8ff" d="M300.53,-222.96C325.62,-217.37 353.5,-206.21 369,-184 410.71,-124.22 314.93,-53.78 268.46,-24.42"/>
<polygon fill="#63b8ff" stroke="#63b8ff" points="270.23,-21.4 259.88,-19.12 266.55,-27.35 270.23,-21.4"/>
</a>
</g>
</g>
<!-- Node9&#45;&gt;Node7 -->
<g id="edge17_Node000009_Node000007" class="edge">
<title>Node9&#45;&gt;Node7</title>
<g id="a_edge17_Node000009_Node000007"><a xlink:title=" ">
<path fill="none" stroke="#63b8ff" d="M293.28,-219.98C329.39,-212.16 375.72,-199.45 387,-184 422.65,-135.15 377.4,-60.84 353.3,-27.61"/>
<polygon fill="#63b8ff" stroke="#63b8ff" points="355.94,-25.29 347.14,-19.38 350.33,-29.48 355.94,-25.29"/>
</a>
</g>
</g>
<!-- Node9&#45;&gt;Node8 -->
<g id="edge19_Node000009_Node000008" class="edge">
<title>Node9&#45;&gt;Node8</title>
<g id="a_edge19_Node000009_Node000008"><a xlink:title=" ">
<path fill="none" stroke="#63b8ff" d="M233.23,-219.91C199.04,-199.28 113.97,-143.43 69,-74 60.2,-60.42 55.34,-42.6 52.74,-29.29"/>
<polygon fill="#63b8ff" stroke="#63b8ff" points="56.18,-28.64 51.05,-19.37 49.28,-29.82 56.18,-28.64"/>
</a>
</g>
</g>
<!-- Node10 -->
<g id="Node000010" class="node">
<title>Node10</title>
<g id="a_Node000010"><a xlink:href="emit__math_8h.html" target="_top" xlink:title="Math operations for JIT code generation.">
<polygon fill="white" stroke="#666666" points="360,-184 226,-184 226,-165 360,-165 360,-184"/>
<text text-anchor="middle" x="293" y="-172" font-family="Helvetica,sans-Serif" font-size="10.00">pulse/emit/emit_math.h</text>
</a>
</g>
</g>
<!-- Node9&#45;&gt;Node10 -->
<g id="edge12_Node000009_Node000010" class="edge">
<title>Node9&#45;&gt;Node10</title>
<g id="a_edge12_Node000009_Node000010"><a xlink:title=" ">
<path fill="none" stroke="#63b8ff" d="M255.43,-219.75C261.85,-212.18 271.31,-201.05 279.12,-191.84"/>
<polygon fill="#63b8ff" stroke="#63b8ff" points="281.9,-193.98 285.71,-184.09 276.57,-189.45 281.9,-193.98"/>
</a>
</g>
</g>
<!-- Node9&#45;&gt;Node11 -->
<g id="edge18_Node000009_Node000011" class="edge">
<title>Node9&#45;&gt;Node11</title>
<g id="a_edge18_Node000009_Node000011"><a xlink:title=" ">
<path fill="none" stroke="#63b8ff" d="M285.44,-219.98C329.14,-210.04 400.96,-193.71 444.33,-183.84"/>
<polygon fill="#63b8ff" stroke="#63b8ff" points="445.21,-187.23 454.19,-181.6 443.66,-180.4 445.21,-187.23"/>
</a>
</g>
</g>
<!-- Node10&#45;&gt;Node3 -->
<g id="edge13_Node000010_Node000003" class="edge">
<title>Node10&#45;&gt;Node3</title>
<g id="a_edge13_Node000010_Node000003"><a xlink:title=" ">
<path fill="none" stroke="#63b8ff" d="M277.09,-164.98C261.45,-156.61 237.34,-143.7 219.12,-133.95"/>
<polygon fill="#63b8ff" stroke="#63b8ff" points="220.66,-130.8 210.2,-129.17 217.36,-136.98 220.66,-130.8"/>
</a>
</g>
</g>
<!-- Node10&#45;&gt;Node5 -->
<g id="edge14_Node000010_Node000005" class="edge">
<title>Node10&#45;&gt;Node5</title>
<g id="a_edge14_Node000010_Node000005"><a xlink:title=" ">
<path fill="none" stroke="#63b8ff" d="M290.42,-164.74C282.9,-139.2 260.88,-64.43 250.52,-29.23"/>
<polygon fill="#63b8ff" stroke="#63b8ff" points="253.78,-27.91 247.59,-19.31 247.06,-29.89 253.78,-27.91"/>
</a>
</g>
</g>
<!-- Node10&#45;&gt;Node7 -->
<g id="edge15_Node000010_Node000007" class="edge">
<title>Node10&#45;&gt;Node7</title>
<g id="a_edge15_Node000010_Node000007"><a xlink:title=" ">
<path fill="none" stroke="#63b8ff" d="M295.53,-164.74C302.89,-139.2 324.45,-64.43 334.6,-29.23"/>
<polygon fill="#63b8ff" stroke="#63b8ff" points="338.05,-29.89 337.46,-19.31 331.33,-27.95 338.05,-29.89"/>
</a>
</g>
</g>
</g>
</svg>

<g id="navigator" transform="translate(0 0)" fill="#404254">
  <rect fill="#f2f5e9" fill-opacity="0.5" stroke="#606060" stroke-width=".5" x="0" y="0" width="60" height="60"/>
  <use id="zoomplus" xlink:href="#zoomPlus" x="17" y="9" onmousedown="handleZoom(evt,'in')"/>
  <use id="zoomminus" xlink:href="#zoomMin" x="42" y="9" onmousedown="handleZoom(evt,'out')"/>
  <use id="reset" xlink:href="#resetDef" x="30" y="36" onmousedown="handleReset()"/>
   <use id="arrowup" xlink:href="#arrowUp" x="0" y="0" onmousedown="handlePan(0,-1)"/>
  <use id="arrowright" xlink:href="#arrowRight" x="0" y="0" onmousedown="handlePan(1,0)"/>
  <use id="arrowdown" xlink:href="#arrowDown" x="0" y="0" onmousedown="handlePan(0,1)"/>
  <use id="arrowleft" xlink:href="#arrowLeft" x="0" y="0" onmousedown="handlePan(-1,0)"/>
</g>
<svg viewBox="0 0 15 15" width="100%" height="30px" preserveAspectRatio="xMaxYMin meet">
 <g id="arrow_out" transform="scale(0.3 0.3)">
  <a xlink:href="emit__pe_8c__incl_org.svg" target="_base">
   <rect id="button" ry="5" rx="5" y="6" x="6" height="38" width="38"
        fill="#f2f5e9" fill-opacity="0.5" stroke="#606060" stroke-width="1.0"/>
   <path id="arrow"
     d="M 11.500037,31.436501 C 11.940474,20.09759 22.043105,11.32322 32.158766,21.979434 L 37.068811,17.246167 C 37.068811,17.246167 37.088388,32 37.088388,32 L 22.160133,31.978069 C 22.160133,31.978069 26.997745,27.140456 26.997745,27.140456 C 18.528582,18.264221 13.291696,25.230495 11.500037,31.436501 z"
     style="fill:#404040;"/>
  </a>
 </g>
</svg>

<style type='text/css'>
<![CDATA[
[data-mouse-over-selected='false'] { opacity: 0.7; }
[data-mouse-over-selected='true']  { opacity: 1.0; }
]]>
</style>
<script type="application/ecmascript"><![CDATA[
document.addEventListener('DOMContentLoaded', (event) => {
  highlightEdges();
  highlightAdjacentNodes();
});
]]></script>
</svg>
