<?xml version="1.0" encoding="UTF-8" standalone="no"?>
<!DOCTYPE svg PUBLIC "-//W3C//DTD SVG 1.1//EN"
 "http://www.w3.org/Graphics/SVG/1.1/DTD/svg11.dtd">
<!-- Generated by graphviz version 2.43.0 (0)
 -->
<!-- Title: src/emit/emit_internals.h Pages: 1 -->
<!--zoomable 214 -->

<svg id="main" version="1.1" xmlns="http://www.w3.org/2000/svg" xmlns:xlink="http://www.w3.org/1999/xlink" xml:space="preserve" onload="init(evt)">
<style type="text/css"><![CDATA[
.node, .edge {opacity: 0.7;}
.node.selected, .edge.selected {opacity: 1;}
.edge:hover path { stroke: red; }
.edge:hover polygon { stroke: red; fill: red; }
]]></style>

<defs>
  <circle id="rim" cx="0" cy="0" r="7"/>
  <circle id="rim2" cx="0" cy="0" r="3.5"/>
  <g id="zoomPlus">
    <use xlink:href="#rim" fill="#404040"><set attributeName="fill" to="#808080" begin="zoomplus.mouseover" end="zoomplus.mouseout"/></use>
    <path d="M-4,0h8M0,-4v8" fill="none" stroke="white" stroke-width="1.5" pointer-events="none"/>
  </g>
  <g id="zoomMin">
    <use xlink:href="#rim" fill="#404040"><set attributeName="fill" to="#808080" begin="zoomminus.mouseover" end="zoomminus.mouseout"/></use>
    <path d="M-4,0h8" fill="none" stroke="white" stroke-width="1.5" pointer-events="none"/>
  </g>
  <g id="arrowUp" transform="translate(30 24)">
    <use xlink:href="#rim"/>
    <path pointer-events="none" fill="none" stroke="white" stroke-width="1.5" d="M0,-3.0v7 M-2.5,-0.5L0,-3.0L2.5,-0.5"/>
  </g>
  <g id="arrowRight" transform="rotate(90) translate(36 -43)">
    <use xlink:href="#rim"/>
    <path pointer-events="none" fill="none" stroke="white" stroke-width="1.5" d="M0,-3.0v7 M-2.5,-0.5L0,-3.0L2.5,-0.5"/>
  </g>
  <g id="arrowDown" transform="rotate(180) translate(-30 -48)">
    <use xlink:href="#rim"/>
    <path pointer-events="none" fill="none" stroke="white" stroke-width="1.5" d="M0,-3.0v7 M-2.5,-0.5L0,-3.0L2.5,-0.5"/>
  </g>
  <g id="arrowLeft" transform="rotate(270) translate(-36 17)">
    <use xlink:href="#rim"/>
    <path pointer-events="none" fill="none" stroke="white" stroke-width="1.5" d="M0,-3.0v7 M-2.5,-0.5L0,-3.0L2.5,-0.5"/>
  </g>
  <g id="resetDef">
    <use xlink:href="#rim2" fill="#404040"><set attributeName="fill" to="#808080" begin="reset.mouseover" end="reset.mouseout"/></use>
  </g>
</defs>
<script type="application/ecmascript">
var viewWidth = 860;
var viewHeight = 214;
var sectionId = 'dynsection-1';
</script>
<script type="application/ecmascript" xlink:href="svg.min.js"/>
<svg id="graph" class="graph">
<g id="viewport">
<title>src/emit/emit_internals.h</title>
<!-- Node1 -->
<g id="Node000001" class="node">
<title>Node1</title>
<g id="a_Node000001"><a xlink:title="Internal structures for the emit JIT code generation system.">
<polygon fill="#999999" stroke="#666666" points="553.5,-206 414.5,-206 414.5,-187 553.5,-187 553.5,-206"/>
<text text-anchor="middle" x="484" y="-194" font-family="Helvetica,sans-Serif" font-size="10.00">src/emit/emit_internals.h</text>
</a>
</g>
</g>
<!-- Node2 -->
<g id="Node000002" class="node">
<title>Node2</title>
<g id="a_Node000002"><a xlink:href="emit__arm64_8h.html" target="_top" xlink:title="ARM64 (AArch64) instruction encoding declarations.">
<polygon fill="white" stroke="#666666" points="404,-151 280,-151 280,-121 404,-121 404,-151"/>
<text text-anchor="start" x="288" y="-139" font-family="Helvetica,sans-Serif" font-size="10.00">src/emit/aarch64/emit</text>
<text text-anchor="middle" x="342" y="-128" font-family="Helvetica,sans-Serif" font-size="10.00">_arm64.h</text>
</a>
</g>
</g>
<!-- Node1&#45;&gt;Node2 -->
<g id="edge1_Node000001_Node000002" class="edge">
<title>Node1&#45;&gt;Node2</title>
<g id="a_edge1_Node000001_Node000002"><a xlink:title=" ">
<path fill="none" stroke="#63b8ff" d="M453.85,-183.08C431.09,-173.7 399.83,-160.82 376.14,-151.06"/>
<polygon fill="#63b8ff" stroke="#63b8ff" points="452.77,-186.42 463.35,-186.99 455.44,-179.95 452.77,-186.42"/>
</a>
</g>
</g>
<!-- Node5 -->
<g id="Node000005" class="node">
<title>Node5</title>
<g id="a_Node000005"><a xlink:href="emit__math_8c.html" target="_top" xlink:title="Implementation of the emit API for generating machine code.">
<polygon fill="white" stroke="#666666" points="273.5,-79.5 152.5,-79.5 152.5,-60.5 273.5,-60.5 273.5,-79.5"/>
<text text-anchor="middle" x="213" y="-67.5" font-family="Helvetica,sans-Serif" font-size="10.00">src/emit/emit_math.c</text>
</a>
</g>
</g>
<!-- Node1&#45;&gt;Node5 -->
<g id="edge12_Node000001_Node000005" class="edge">
<title>Node1&#45;&gt;Node5</title>
<g id="a_edge12_Node000001_Node000005"><a xlink:title=" ">
<path fill="none" stroke="#63b8ff" d="M404.4,-192.58C361.95,-187.79 310.48,-176.57 271,-151 243.07,-132.91 224.16,-96.29 216.64,-79.62"/>
<polygon fill="#63b8ff" stroke="#63b8ff" points="404.12,-196.07 414.43,-193.61 404.84,-189.1 404.12,-196.07"/>
</a>
</g>
</g>
<!-- Node6 -->
<g id="Node000006" class="node">
<title>Node6</title>
<g id="a_Node000006"><a xlink:href="emit__elf_8c.html" target="_top" xlink:title="ELF (Executable and Linkable Format) binary format support.">
<polygon fill="white" stroke="#666666" points="652.5,-79.5 529.5,-79.5 529.5,-60.5 652.5,-60.5 652.5,-79.5"/>
<text text-anchor="middle" x="591" y="-67.5" font-family="Helvetica,sans-Serif" font-size="10.00">src/emit/elf/emit_elf.c</text>
</a>
</g>
</g>
<!-- Node1&#45;&gt;Node6 -->
<g id="edge6_Node000001_Node000006" class="edge">
<title>Node1&#45;&gt;Node6</title>
<g id="a_edge6_Node000001_Node000006"><a xlink:title=" ">
<path fill="none" stroke="#63b8ff" d="M513.31,-182.2C527.37,-174.66 543.58,-164.1 555,-151 574.11,-129.07 584.75,-95.33 588.91,-79.61"/>
<polygon fill="#63b8ff" stroke="#63b8ff" points="511.34,-179.28 504.01,-186.94 514.51,-185.52 511.34,-179.28"/>
</a>
</g>
</g>
<!-- Node7 -->
<g id="Node000007" class="node">
<title>Node7</title>
<g id="a_Node000007"><a xlink:href="emit__elf_8h.html" target="_top" xlink:title="ELF (Executable and Linkable Format) structures and constants.">
<polygon fill="white" stroke="#666666" points="546,-145.5 422,-145.5 422,-126.5 546,-126.5 546,-145.5"/>
<text text-anchor="middle" x="484" y="-133.5" font-family="Helvetica,sans-Serif" font-size="10.00">src/emit/elf/emit_elf.h</text>
</a>
</g>
</g>
<!-- Node1&#45;&gt;Node7 -->
<g id="edge8_Node000001_Node000007" class="edge">
<title>Node1&#45;&gt;Node7</title>
<g id="a_edge8_Node000001_Node000007"><a xlink:title=" ">
<path fill="none" stroke="#63b8ff" d="M484,-176.66C484,-166.24 484,-153.8 484,-145.67"/>
<polygon fill="#63b8ff" stroke="#63b8ff" points="480.5,-176.87 484,-186.87 487.5,-176.87 480.5,-176.87"/>
</a>
</g>
</g>
<!-- Node9 -->
<g id="Node000009" class="node">
<title>Node9</title>
<g id="a_Node000009"><a xlink:href="emit__pe_8c.html" target="_top" xlink:title="PE (Portable Executable) binary format support for emit system.">
<polygon fill="white" stroke="#666666" points="724,-145.5 602,-145.5 602,-126.5 724,-126.5 724,-145.5"/>
<text text-anchor="middle" x="663" y="-133.5" font-family="Helvetica,sans-Serif" font-size="10.00">src/emit/pe/emit_pe.c</text>
</a>
</g>
</g>
<!-- Node1&#45;&gt;Node9 -->
<g id="edge13_Node000001_Node000009" class="edge">
<title>Node1&#45;&gt;Node9</title>
<g id="a_edge13_Node000001_Node000009"><a xlink:title=" ">
<path fill="none" stroke="#63b8ff" d="M519.75,-183.82C554.37,-172.5 606.04,-155.62 636.94,-145.52"/>
<polygon fill="#63b8ff" stroke="#63b8ff" points="518.45,-180.56 510.03,-186.99 520.62,-187.21 518.45,-180.56"/>
</a>
</g>
</g>
<!-- Node10 -->
<g id="Node000010" class="node">
<title>Node10</title>
<g id="a_Node000010"><a xlink:href="emit__x64_8h.html" target="_top" xlink:title="x86&#45;64 instruction encoding declarations.">
<polygon fill="white" stroke="#666666" points="223.5,-145.5 88.5,-145.5 88.5,-126.5 223.5,-126.5 223.5,-145.5"/>
<text text-anchor="middle" x="156" y="-133.5" font-family="Helvetica,sans-Serif" font-size="10.00">src/emit/x64/emit_x64.h</text>
</a>
</g>
</g>
<!-- Node1&#45;&gt;Node10 -->
<g id="edge15_Node000001_Node000010" class="edge">
<title>Node1&#45;&gt;Node10</title>
<g id="a_edge15_Node000001_Node000010"><a xlink:title=" ">
<path fill="none" stroke="#63b8ff" d="M426.1,-185.17C362.84,-173.89 262.69,-156.03 203.75,-145.52"/>
<polygon fill="#63b8ff" stroke="#63b8ff" points="425.85,-188.68 436.31,-186.99 427.08,-181.79 425.85,-188.68"/>
</a>
</g>
</g>
<!-- Node12 -->
<g id="Node000012" class="node">
<title>Node12</title>
<g id="a_Node000012"><a xlink:href="190__emit__direct_8c.html" target="_top" xlink:title="Unified Test Suite: Infix Emit API &amp; Pulse Language Compiler.">
<polygon fill="white" stroke="#666666" points="852,-145.5 742,-145.5 742,-126.5 852,-126.5 852,-145.5"/>
<text text-anchor="middle" x="797" y="-133.5" font-family="Helvetica,sans-Serif" font-size="10.00">t/190_emit_direct.c</text>
</a>
</g>
</g>
<!-- Node1&#45;&gt;Node12 -->
<g id="edge19_Node000001_Node000012" class="edge">
<title>Node1&#45;&gt;Node12</title>
<g id="a_edge19_Node000001_Node000012"><a xlink:title=" ">
<path fill="none" stroke="#63b8ff" d="M545.23,-185.23C595.71,-176.61 669.13,-163.69 733,-151 741.48,-149.32 750.56,-147.4 759.15,-145.53"/>
<polygon fill="#63b8ff" stroke="#63b8ff" points="544.4,-181.82 535.13,-186.95 545.58,-188.72 544.4,-181.82"/>
</a>
</g>
</g>
<!-- Node3 -->
<g id="Node000003" class="node">
<title>Node3</title>
<g id="a_Node000003"><a xlink:href="emit__arm64_8c.html" target="_top" xlink:title="ARM64 instruction encoding implementation.">
<polygon fill="white" stroke="#666666" points="416,-85 292,-85 292,-55 416,-55 416,-85"/>
<text text-anchor="start" x="300" y="-73" font-family="Helvetica,sans-Serif" font-size="10.00">src/emit/aarch64/emit</text>
<text text-anchor="middle" x="354" y="-62" font-family="Helvetica,sans-Serif" font-size="10.00">_arm64.c</text>
</a>
</g>
</g>
<!-- Node2&#45;&gt;Node3 -->
<g id="edge2_Node000002_Node000003" class="edge">
<title>Node2&#45;&gt;Node3</title>
<g id="a_edge2_Node000002_Node000003"><a xlink:title=" ">
<path fill="none" stroke="#63b8ff" d="M346.53,-110.83C348.16,-102.17 349.93,-92.7 351.34,-85.16"/>
<polygon fill="#63b8ff" stroke="#63b8ff" points="343.07,-110.32 344.66,-120.8 349.95,-111.61 343.07,-110.32"/>
</a>
</g>
</g>
<!-- Node2&#45;&gt;Node5 -->
<g id="edge4_Node000002_Node000005" class="edge">
<title>Node2&#45;&gt;Node5</title>
<g id="a_edge4_Node000002_Node000005"><a xlink:title=" ">
<path fill="none" stroke="#63b8ff" d="M304.63,-116.46C280.06,-104.27 249.08,-88.9 230.17,-79.52"/>
<polygon fill="#63b8ff" stroke="#63b8ff" points="303.18,-119.65 313.69,-120.95 306.29,-113.38 303.18,-119.65"/>
</a>
</g>
</g>
<!-- Node4 -->
<g id="Node000004" class="node">
<title>Node4</title>
<g id="a_Node000004"><a xlink:href="pulse_8c.html" target="_top" xlink:title=" ">
<polygon fill="white" stroke="#666666" points="388,-19 320,-19 320,0 388,0 388,-19"/>
<text text-anchor="middle" x="354" y="-7" font-family="Helvetica,sans-Serif" font-size="10.00">src/pulse.c</text>
</a>
</g>
</g>
<!-- Node3&#45;&gt;Node4 -->
<g id="edge3_Node000003_Node000004" class="edge">
<title>Node3&#45;&gt;Node4</title>
<g id="a_edge3_Node000003_Node000004"><a xlink:title=" ">
<path fill="none" stroke="#63b8ff" d="M354,-44.75C354,-35.72 354,-26.03 354,-19.27"/>
<polygon fill="#63b8ff" stroke="#63b8ff" points="350.5,-44.84 354,-54.84 357.5,-44.84 350.5,-44.84"/>
</a>
</g>
</g>
<!-- Node5&#45;&gt;Node4 -->
<g id="edge5_Node000005_Node000004" class="edge">
<title>Node5&#45;&gt;Node4</title>
<g id="a_edge5_Node000005_Node000004"><a xlink:title=" ">
<path fill="none" stroke="#63b8ff" d="M242.93,-56.58C270.17,-45.28 309.65,-28.9 333.47,-19.02"/>
<polygon fill="#63b8ff" stroke="#63b8ff" points="241.4,-53.43 233.5,-60.49 244.08,-59.89 241.4,-53.43"/>
</a>
</g>
</g>
<!-- Node6&#45;&gt;Node4 -->
<g id="edge7_Node000006_Node000004" class="edge">
<title>Node6&#45;&gt;Node4</title>
<g id="a_edge7_Node000006_Node000004"><a xlink:title=" ">
<path fill="none" stroke="#63b8ff" d="M546.56,-58.03C500.61,-46.69 429.85,-29.22 388.12,-18.92"/>
<polygon fill="#63b8ff" stroke="#63b8ff" points="545.99,-61.5 556.54,-60.49 547.67,-54.7 545.99,-61.5"/>
</a>
</g>
</g>
<!-- Node7&#45;&gt;Node5 -->
<g id="edge10_Node000007_Node000005" class="edge">
<title>Node7&#45;&gt;Node5</title>
<g id="a_edge10_Node000007_Node000005"><a xlink:title=" ">
<path fill="none" stroke="#63b8ff" d="M437.85,-124.1C384.47,-111.49 297.72,-91.01 249.05,-79.51"/>
<polygon fill="#63b8ff" stroke="#63b8ff" points="437.2,-127.54 447.73,-126.44 438.81,-120.73 437.2,-127.54"/>
</a>
</g>
</g>
<!-- Node7&#45;&gt;Node6 -->
<g id="edge9_Node000007_Node000006" class="edge">
<title>Node7&#45;&gt;Node6</title>
<g id="a_edge9_Node000007_Node000006"><a xlink:title=" ">
<path fill="none" stroke="#63b8ff" d="M507.09,-121.19C528.15,-108.59 558.61,-90.37 576.46,-79.7"/>
<polygon fill="#63b8ff" stroke="#63b8ff" points="505.22,-118.23 498.43,-126.37 508.81,-124.24 505.22,-118.23"/>
</a>
</g>
</g>
<!-- Node8 -->
<g id="Node000008" class="node">
<title>Node8</title>
<g id="a_Node000008"><a xlink:href="180__emit_8c.html" target="_top" xlink:title="Unit test for the emit API (JIT compiler and Executable builder suite).">
<polygon fill="white" stroke="#666666" points="511.5,-79.5 434.5,-79.5 434.5,-60.5 511.5,-60.5 511.5,-79.5"/>
<text text-anchor="middle" x="473" y="-67.5" font-family="Helvetica,sans-Serif" font-size="10.00">t/180_emit.c</text>
</a>
</g>
</g>
<!-- Node7&#45;&gt;Node8 -->
<g id="edge11_Node000007_Node000008" class="edge">
<title>Node7&#45;&gt;Node8</title>
<g id="a_edge11_Node000007_Node000008"><a xlink:title=" ">
<path fill="none" stroke="#63b8ff" d="M480.81,-116.45C478.75,-104.43 476.15,-89.32 474.53,-79.91"/>
<polygon fill="#63b8ff" stroke="#63b8ff" points="477.37,-117.11 482.52,-126.37 484.27,-115.92 477.37,-117.11"/>
</a>
</g>
</g>
<!-- Node9&#45;&gt;Node4 -->
<g id="edge14_Node000009_Node000004" class="edge">
<title>Node9&#45;&gt;Node4</title>
<g id="a_edge14_Node000009_Node000004"><a xlink:title=" ">
<path fill="none" stroke="#63b8ff" d="M668.95,-116.4C673.42,-98.44 676.56,-71.61 662,-55 626.6,-14.63 460.52,-10.12 388.01,-10.12"/>
<polygon fill="#63b8ff" stroke="#63b8ff" points="665.51,-115.68 666.14,-126.26 672.25,-117.6 665.51,-115.68"/>
</a>
</g>
</g>
<!-- Node10&#45;&gt;Node5 -->
<g id="edge16_Node000010_Node000005" class="edge">
<title>Node10&#45;&gt;Node5</title>
<g id="a_edge16_Node000010_Node000005"><a xlink:title=" ">
<path fill="none" stroke="#63b8ff" d="M170.59,-118.62C181.56,-106.31 196.17,-89.89 205.07,-79.91"/>
<polygon fill="#63b8ff" stroke="#63b8ff" points="167.72,-116.57 163.69,-126.37 172.95,-121.23 167.72,-116.57"/>
</a>
</g>
</g>
<!-- Node11 -->
<g id="Node000011" class="node">
<title>Node11</title>
<g id="a_Node000011"><a xlink:href="emit__x64_8c.html" target="_top" xlink:title="x86&#45;64 instruction encoding implementation.">
<polygon fill="white" stroke="#666666" points="134,-79.5 0,-79.5 0,-60.5 134,-60.5 134,-79.5"/>
<text text-anchor="middle" x="67" y="-67.5" font-family="Helvetica,sans-Serif" font-size="10.00">src/emit/x64/emit_x64.c</text>
</a>
</g>
</g>
<!-- Node10&#45;&gt;Node11 -->
<g id="edge17_Node000010_Node000011" class="edge">
<title>Node10&#45;&gt;Node11</title>
<g id="a_edge17_Node000010_Node000011"><a xlink:title=" ">
<path fill="none" stroke="#63b8ff" d="M135.61,-120.33C118.15,-107.78 93.61,-90.13 79.1,-79.7"/>
<polygon fill="#63b8ff" stroke="#63b8ff" points="133.83,-123.37 144,-126.37 137.92,-117.69 133.83,-123.37"/>
</a>
</g>
</g>
<!-- Node11&#45;&gt;Node4 -->
<g id="edge18_Node000011_Node000004" class="edge">
<title>Node11&#45;&gt;Node4</title>
<g id="a_edge18_Node000011_Node000004"><a xlink:title=" ">
<path fill="none" stroke="#63b8ff" d="M118.84,-58.43C177.11,-46.56 270.06,-27.61 319.86,-17.46"/>
<polygon fill="#63b8ff" stroke="#63b8ff" points="117.83,-55.07 108.73,-60.49 119.23,-61.93 117.83,-55.07"/>
</a>
</g>
</g>
</g>
</svg>

<g id="navigator" transform="translate(0 0)" fill="#404254">
  <rect fill="#f2f5e9" fill-opacity="0.5" stroke="#606060" stroke-width=".5" x="0" y="0" width="60" height="60"/>
  <use id="zoomplus" xlink:href="#zoomPlus" x="17" y="9" onmousedown="handleZoom(evt,'in')"/>
  <use id="zoomminus" xlink:href="#zoomMin" x="42" y="9" onmousedown="handleZoom(evt,'out')"/>
  <use id="reset" xlink:href="#resetDef" x="30" y="36" onmousedown="handleReset()"/>
   <use id="arrowup" xlink:href="#arrowUp" x="0" y="0" onmousedown="handlePan(0,-1)"/>
  <use id="arrowright" xlink:href="#arrowRight" x="0" y="0" onmousedown="handlePan(1,0)"/>
  <use id="arrowdown" xlink:href="#arrowDown" x="0" y="0" onmousedown="handlePan(0,1)"/>
  <use id="arrowleft" xlink:href="#arrowLeft" x="0" y="0" onmousedown="handlePan(-1,0)"/>
</g>
<svg viewBox="0 0 15 15" width="100%" height="30px" preserveAspectRatio="xMaxYMin meet">
 <g id="arrow_out" transform="scale(0.3 0.3)">
  <a xlink:href="emit__internals_8h__dep__incl_org.svg" target="_base">
   <rect id="button" ry="5" rx="5" y="6" x="6" height="38" width="38"
        fill="#f2f5e9" fill-opacity="0.5" stroke="#606060" stroke-width="1.0"/>
   <path id="arrow"
     d="M 11.500037,31.436501 C 11.940474,20.09759 22.043105,11.32322 32.158766,21.979434 L 37.068811,17.246167 C 37.068811,17.246167 37.088388,32 37.088388,32 L 22.160133,31.978069 C 22.160133,31.978069 26.997745,27.140456 26.997745,27.140456 C 18.528582,18.264221 13.291696,25.230495 11.500037,31.436501 z"
     style="fill:#404040;"/>
  </a>
 </g>
</svg>

<style type='text/css'>
<![CDATA[
[data-mouse-over-selected='false'] { opacity: 0.7; }
[data-mouse-over-selected='true']  { opacity: 1.0; }
]]>
</style>
<script type="application/ecmascript"><![CDATA[
document.addEventListener('DOMContentLoaded', (event) => {
  highlightEdges();
  highlightAdjacentNodes();
});
]]></script>
</svg>
