<?xml version="1.0" encoding="UTF-8" standalone="no"?>
<!DOCTYPE svg PUBLIC "-//W3C//DTD SVG 1.1//EN"
 "http://www.w3.org/Graphics/SVG/1.1/DTD/svg11.dtd">
<!-- Generated by graphviz version 2.43.0 (0)
 -->
<!-- Title: infix_reverse_t Pages: 1 -->
<svg width="376pt" height="159pt"
 viewBox="0.00 0.00 376.00 159.00" xmlns="http://www.w3.org/2000/svg" xmlns:xlink="http://www.w3.org/1999/xlink">

<svg id="main" version="1.1" xmlns="http://www.w3.org/2000/svg" xmlns:xlink="http://www.w3.org/1999/xlink" xml:space="preserve" onload="init(evt)">
<style type="text/css"><![CDATA[
.node, .edge {opacity: 0.7;}
.node.selected, .edge.selected {opacity: 1;}
.edge:hover path { stroke: red; }
.edge:hover polygon { stroke: red; fill: red; }
]]></style>
<script type="application/ecmascript" xlink:href="svg.min.js"/>
<svg id="graph" class="graph">
<g id="graph0" class="graph" transform="scale(1 1) rotate(0) translate(4 155)">
<title>infix_reverse_t</title>
<!-- Node1 -->
<g id="Node000001" class="node">
<title>Node1</title>
<g id="a_Node000001"><a xlink:title="Internal definition of a reverse trampoline (callback/closure) handle.">
<polygon fill="#999999" stroke="#666666" points="193.5,-19 104.5,-19 104.5,0 193.5,0 193.5,-19"/>
<text text-anchor="middle" x="149" y="-7" font-family="Helvetica,sans-Serif" font-size="10.00">infix_reverse_t</text>
</a>
</g>
</g>
<!-- Node1&#45;&gt;Node1 -->
<g id="edge5_Node000001_Node000001" class="edge">
<title>Node1&#45;&gt;Node1</title>
<g id="a_edge5_Node000001_Node000001"><a xlink:title=" ">
<path fill="none" stroke="#9a32cd" stroke-dasharray="5,2" d="M203.83,-14.19C208.55,-13.19 211.5,-11.63 211.5,-9.5 211.5,-6.09 203.95,-4.14 193.66,-3.63"/>
<polygon fill="#9a32cd" stroke="#9a32cd" points="203.19,-10.74 193.66,-15.37 204,-17.69 203.19,-10.74"/>
</a>
</g>
<text text-anchor="middle" x="260" y="-7" font-family="Helvetica,sans-Serif" font-size="10.00" fill="grey"> internal_dispatcher</text>
</g>
<!-- Node2 -->
<g id="Node000002" class="node">
<title>Node2</title>
<g id="a_Node000002"><a xlink:href="structinfix__arena__t.html" target="_top" xlink:title="Internal definition of a memory arena.">
<polygon fill="white" stroke="#666666" points="80,-151 0,-151 0,-132 80,-132 80,-151"/>
<text text-anchor="middle" x="40" y="-139" font-family="Helvetica,sans-Serif" font-size="10.00">infix_arena_t</text>
</a>
</g>
</g>
<!-- Node2&#45;&gt;Node1 -->
<g id="edge1_Node000001_Node000002" class="edge">
<title>Node2&#45;&gt;Node1</title>
<g id="a_edge1_Node000001_Node000002"><a xlink:title=" ">
<path fill="none" stroke="#9a32cd" stroke-dasharray="5,2" d="M38.7,-121.41C38.24,-97.38 41.61,-56.86 67,-37 77.72,-28.61 91.18,-22.84 104.08,-18.88"/>
<polygon fill="#9a32cd" stroke="#9a32cd" points="35.22,-121.88 39.15,-131.71 42.21,-121.57 35.22,-121.88"/>
</a>
</g>
<text text-anchor="middle" x="62.5" y="-73" font-family="Helvetica,sans-Serif" font-size="10.00" fill="grey"> arena</text>
</g>
<!-- Node2&#45;&gt;Node2 -->
<g id="edge2_Node000002_Node000002" class="edge">
<title>Node2&#45;&gt;Node2</title>
<g id="a_edge2_Node000002_Node000002"><a xlink:title=" ">
<path fill="none" stroke="#9a32cd" stroke-dasharray="5,2" d="M90.26,-146.32C95,-145.33 98,-143.73 98,-141.5 98,-137.94 90.33,-135.96 80.12,-135.57"/>
<polygon fill="#9a32cd" stroke="#9a32cd" points="89.68,-142.86 80.12,-147.43 90.44,-149.82 89.68,-142.86"/>
</a>
</g>
<text text-anchor="middle" x="126.5" y="-139" font-family="Helvetica,sans-Serif" font-size="10.00" fill="grey"> next_block</text>
</g>
<!-- Node5 -->
<g id="Node000005" class="node">
<title>Node5</title>
<g id="a_Node000005"><a xlink:href="structinfix__forward__t.html" target="_top" xlink:title="Internal definition of a forward trampoline handle.">
<polygon fill="white" stroke="#666666" points="177.5,-85 88.5,-85 88.5,-66 177.5,-66 177.5,-85"/>
<text text-anchor="middle" x="133" y="-73" font-family="Helvetica,sans-Serif" font-size="10.00">infix_forward_t</text>
</a>
</g>
</g>
<!-- Node2&#45;&gt;Node5 -->
<g id="edge7_Node000005_Node000002" class="edge">
<title>Node2&#45;&gt;Node5</title>
<g id="a_edge7_Node000005_Node000002"><a xlink:title=" ">
<path fill="none" stroke="#9a32cd" stroke-dasharray="5,2" d="M60.81,-126.18C79.08,-113.61 105.06,-95.73 120.36,-85.2"/>
<polygon fill="#9a32cd" stroke="#9a32cd" points="58.8,-123.32 52.54,-131.87 62.76,-129.08 58.8,-123.32"/>
</a>
</g>
<text text-anchor="middle" x="108.5" y="-106" font-family="Helvetica,sans-Serif" font-size="10.00" fill="grey"> arena</text>
</g>
<!-- Node3 -->
<g id="Node000003" class="node">
<title>Node3</title>
<g id="a_Node000003"><a xlink:href="structinfix__executable__t.html" target="_top" xlink:title="Internal representation of an executable memory block for JIT code.">
<polygon fill="white" stroke="#666666" points="278.5,-151 173.5,-151 173.5,-132 278.5,-132 278.5,-151"/>
<text text-anchor="middle" x="226" y="-139" font-family="Helvetica,sans-Serif" font-size="10.00">infix_executable_t</text>
</a>
</g>
</g>
<!-- Node3&#45;&gt;Node1 -->
<g id="edge3_Node000001_Node000003" class="edge">
<title>Node3&#45;&gt;Node1</title>
<g id="a_edge3_Node000001_Node000003"><a xlink:title=" ">
<path fill="none" stroke="#9a32cd" stroke-dasharray="5,2" d="M228.66,-121.72C230.77,-99.22 230.78,-61.52 212,-37 205.65,-28.71 196.22,-22.99 186.58,-19.05"/>
<polygon fill="#9a32cd" stroke="#9a32cd" points="225.14,-121.6 227.45,-131.94 232.1,-122.42 225.14,-121.6"/>
</a>
</g>
<text text-anchor="middle" x="241" y="-73" font-family="Helvetica,sans-Serif" font-size="10.00" fill="grey"> exec</text>
</g>
<!-- Node3&#45;&gt;Node5 -->
<g id="edge8_Node000005_Node000003" class="edge">
<title>Node3&#45;&gt;Node5</title>
<g id="a_edge8_Node000005_Node000003"><a xlink:title=" ">
<path fill="none" stroke="#9a32cd" stroke-dasharray="5,2" d="M203.91,-126.04C198.06,-122.17 191.77,-117.95 186,-114 171.86,-104.32 155.83,-92.91 145.14,-85.25"/>
<polygon fill="#9a32cd" stroke="#9a32cd" points="202.32,-129.19 212.6,-131.77 206.18,-123.34 202.32,-129.19"/>
</a>
</g>
<text text-anchor="middle" x="199" y="-106" font-family="Helvetica,sans-Serif" font-size="10.00" fill="grey"> exec</text>
</g>
<!-- Node4 -->
<g id="Node000004" class="node">
<title>Node4</title>
<g id="a_Node000004"><a xlink:href="structinfix__protected__t.html" target="_top" xlink:title="Internal representation of a memory block that will be made read&#45;only.">
<polygon fill="white" stroke="#666666" points="368,-85 270,-85 270,-66 368,-66 368,-85"/>
<text text-anchor="middle" x="319" y="-73" font-family="Helvetica,sans-Serif" font-size="10.00">infix_protected_t</text>
</a>
</g>
</g>
<!-- Node4&#45;&gt;Node1 -->
<g id="edge4_Node000001_Node000004" class="edge">
<title>Node4&#45;&gt;Node1</title>
<g id="a_edge4_Node000001_Node000004"><a xlink:title=" ">
<path fill="none" stroke="#9a32cd" stroke-dasharray="5,2" d="M293.7,-61.22C278.41,-53.52 258.39,-43.99 240,-37 221.54,-29.98 200.39,-23.72 183.13,-19.05"/>
<polygon fill="#9a32cd" stroke="#9a32cd" points="292.49,-64.53 302.99,-65.97 295.68,-58.3 292.49,-64.53"/>
</a>
</g>
<text text-anchor="middle" x="299" y="-40" font-family="Helvetica,sans-Serif" font-size="10.00" fill="grey"> protected_ctx</text>
</g>
<!-- Node5&#45;&gt;Node1 -->
<g id="edge6_Node000001_Node000005" class="edge">
<title>Node5&#45;&gt;Node1</title>
<g id="a_edge6_Node000001_Node000005"><a xlink:title=" ">
<path fill="none" stroke="#9a32cd" stroke-dasharray="5,2" d="M88.43,-62.28C74.84,-56.22 65.3,-47.84 73,-37 80.36,-26.63 92.1,-20.29 104.16,-16.42"/>
<polygon fill="#9a32cd" stroke="#9a32cd" points="87.21,-65.56 97.8,-65.93 89.75,-59.04 87.21,-65.56"/>
</a>
</g>
<text text-anchor="middle" x="142.5" y="-40" font-family="Helvetica,sans-Serif" font-size="10.00" fill="grey"> cached_forward_trampoline</text>
</g>
</g>
</svg>
</svg>

<style type='text/css'>
<![CDATA[
[data-mouse-over-selected='false'] { opacity: 0.7; }
[data-mouse-over-selected='true']  { opacity: 1.0; }
]]>
</style>
<script type="application/ecmascript"><![CDATA[
document.addEventListener('DOMContentLoaded', (event) => {
  highlightEdges();
  highlightAdjacentNodes();
});
]]></script>
</svg>
