<?xml version="1.0" encoding="UTF-8" standalone="no"?>
<!DOCTYPE svg PUBLIC "-//W3C//DTD SVG 1.1//EN"
 "http://www.w3.org/Graphics/SVG/1.1/DTD/svg11.dtd">
<!-- Generated by graphviz version 2.43.0 (0)
 -->
<!-- Title: parser_t Pages: 1 -->
<svg width="153pt" height="173pt"
 viewBox="0.00 0.00 152.50 173.00" xmlns="http://www.w3.org/2000/svg" xmlns:xlink="http://www.w3.org/1999/xlink">

<svg id="main" version="1.1" xmlns="http://www.w3.org/2000/svg" xmlns:xlink="http://www.w3.org/1999/xlink" xml:space="preserve" onload="init(evt)">
<style type="text/css"><![CDATA[
.node, .edge {opacity: 0.7;}
.node.selected, .edge.selected {opacity: 1;}
.edge:hover path { stroke: red; }
.edge:hover polygon { stroke: red; fill: red; }
]]></style>
<script type="application/ecmascript" xlink:href="svg.min.js"/>
<svg id="graph" class="graph">
<g id="graph0" class="graph" transform="scale(1 1) rotate(0) translate(4 169)">
<title>parser_t</title>
<!-- Node1 -->
<g id="Node000001" class="node">
<title>Node1</title>
<g id="a_Node000001"><a xlink:title=" ">
<polygon fill="#999999" stroke="#666666" points="67.5,-19 11.5,-19 11.5,0 67.5,0 67.5,-19"/>
<text text-anchor="middle" x="39.5" y="-7" font-family="Helvetica,sans-Serif" font-size="10.00">parser_t</text>
</a>
</g>
</g>
<!-- Node2 -->
<g id="Node000002" class="node">
<title>Node2</title>
<g id="a_Node000002"><a xlink:href="structlexer__t.html" target="_top" xlink:title=" ">
<polygon fill="white" stroke="#666666" points="121.5,-86.5 71.5,-86.5 71.5,-67.5 121.5,-67.5 121.5,-86.5"/>
<text text-anchor="middle" x="96.5" y="-74.5" font-family="Helvetica,sans-Serif" font-size="10.00">lexer_t</text>
</a>
</g>
</g>
<!-- Node2&#45;&gt;Node1 -->
<g id="edge1_Node000001_Node000002" class="edge">
<title>Node2&#45;&gt;Node1</title>
<g id="a_edge1_Node000001_Node000002"><a xlink:title=" ">
<path fill="none" stroke="#9a32cd" stroke-dasharray="5,2" d="M82.41,-59.8C71.26,-47 56.13,-29.61 47.14,-19.27"/>
<polygon fill="#9a32cd" stroke="#9a32cd" points="79.84,-62.19 89.05,-67.44 85.12,-57.6 79.84,-62.19"/>
</a>
</g>
<text text-anchor="middle" x="84.5" y="-40" font-family="Helvetica,sans-Serif" font-size="10.00" fill="grey"> lexer</text>
</g>
<!-- Node3 -->
<g id="Node000003" class="node">
<title>Node3</title>
<g id="a_Node000003"><a xlink:href="structtoken__t.html" target="_top" xlink:title=" ">
<polygon fill="white" stroke="#666666" points="53,-165 0,-165 0,-146 53,-146 53,-165"/>
<text text-anchor="middle" x="26.5" y="-153" font-family="Helvetica,sans-Serif" font-size="10.00">token_t</text>
</a>
</g>
</g>
<!-- Node3&#45;&gt;Node1 -->
<g id="edge3_Node000001_Node000003" class="edge">
<title>Node3&#45;&gt;Node1</title>
<g id="a_edge3_Node000001_Node000003"><a xlink:title=" ">
<path fill="none" stroke="#9a32cd" stroke-dasharray="5,2" d="M22.33,-135.87C18.93,-117.87 15.32,-89.9 19.5,-66 22.5,-48.85 30.33,-30 35.26,-19.28"/>
<polygon fill="#9a32cd" stroke="#9a32cd" points="18.95,-136.8 24.4,-145.89 25.8,-135.39 18.95,-136.8"/>
</a>
</g>
<text text-anchor="middle" x="41" y="-80" font-family="Helvetica,sans-Serif" font-size="10.00" fill="grey"> current</text>
<text text-anchor="middle" x="41" y="-69" font-family="Helvetica,sans-Serif" font-size="10.00" fill="grey">previous</text>
</g>
<!-- Node3&#45;&gt;Node2 -->
<g id="edge2_Node000002_Node000003" class="edge">
<title>Node3&#45;&gt;Node2</title>
<g id="a_edge2_Node000002_Node000003"><a xlink:title=" ">
<path fill="none" stroke="#9a32cd" stroke-dasharray="5,2" d="M41.35,-138.27C55.77,-122.51 77.12,-99.18 88.56,-86.67"/>
<polygon fill="#9a32cd" stroke="#9a32cd" points="38.7,-135.98 34.53,-145.72 43.86,-140.71 38.7,-135.98"/>
</a>
</g>
<text text-anchor="middle" x="107" y="-120" font-family="Helvetica,sans-Serif" font-size="10.00" fill="grey"> current_token</text>
<text text-anchor="middle" x="107" y="-109" font-family="Helvetica,sans-Serif" font-size="10.00" fill="grey">previous_token</text>
</g>
</g>
</svg>
</svg>

<style type='text/css'>
<![CDATA[
[data-mouse-over-selected='false'] { opacity: 0.7; }
[data-mouse-over-selected='true']  { opacity: 1.0; }
]]>
</style>
<script type="application/ecmascript"><![CDATA[
document.addEventListener('DOMContentLoaded', (event) => {
  highlightEdges();
  highlightAdjacentNodes();
});
]]></script>
</svg>
