<?xml version="1.0" encoding="UTF-8" standalone="no"?>
<!DOCTYPE svg PUBLIC "-//W3C//DTD SVG 1.1//EN"
 "http://www.w3.org/Graphics/SVG/1.1/DTD/svg11.dtd">
<!-- Generated by graphviz version 2.43.0 (0)
 -->
<!-- Title: codegen_t Pages: 1 -->
<svg width="703pt" height="418pt"
 viewBox="0.00 0.00 702.67 418.00" xmlns="http://www.w3.org/2000/svg" xmlns:xlink="http://www.w3.org/1999/xlink">
<g id="graph0" class="graph" transform="scale(1 1) rotate(0) translate(4 414)">
<title>codegen_t</title>
<!-- Node1 -->
<g id="Node000001" class="node">
<title>Node1</title>
<g id="a_Node000001"><a xlink:title=" ">
<polygon fill="#999999" stroke="#666666" points="389.17,-19 322.17,-19 322.17,0 389.17,0 389.17,-19"/>
<text text-anchor="middle" x="355.67" y="-7" font-family="Helvetica,sans-Serif" font-size="10.00">codegen_t</text>
</a>
</g>
</g>
<!-- Node2 -->
<g id="Node000002" class="node">
<title>Node2</title>
<g id="a_Node000002"><a xlink:href="structfunction.html" target="_top" xlink:title=" ">
<polygon fill="white" stroke="#666666" points="454.67,-96 398.67,-96 398.67,-77 454.67,-77 454.67,-96"/>
<text text-anchor="middle" x="426.67" y="-84" font-family="Helvetica,sans-Serif" font-size="10.00">function</text>
</a>
</g>
</g>
<!-- Node2&#45;&gt;Node1 -->
<g id="edge1_Node000001_Node000002" class="edge">
<title>Node2&#45;&gt;Node1</title>
<g id="a_edge1_Node000001_Node000002"><a xlink:title=" ">
<path fill="none" stroke="#9a32cd" stroke-dasharray="5,2" d="M411.6,-69.59C396.98,-54.13 375.33,-31.27 363.72,-19"/>
<polygon fill="#9a32cd" stroke="#9a32cd" points="409.11,-72.04 418.52,-76.9 414.19,-67.23 409.11,-72.04"/>
</a>
</g>
<text text-anchor="middle" x="440.17" y="-51" font-family="Helvetica,sans-Serif" font-size="10.00" fill="grey"> current_function</text>
<text text-anchor="middle" x="440.17" y="-40" font-family="Helvetica,sans-Serif" font-size="10.00" fill="grey">functions</text>
</g>
<!-- Node2&#45;&gt;Node2 -->
<g id="edge15_Node000002_Node000002" class="edge">
<title>Node2&#45;&gt;Node2</title>
<g id="a_edge15_Node000002_Node000002"><a xlink:title=" ">
<path fill="none" stroke="#9a32cd" stroke-dasharray="5,2" d="M465.22,-92.59C469.73,-91.47 472.67,-89.44 472.67,-86.5 472.67,-81.68 464.76,-79.3 454.97,-79.38"/>
<polygon fill="#9a32cd" stroke="#9a32cd" points="464.57,-89.14 454.97,-93.62 465.27,-96.1 464.57,-89.14"/>
</a>
</g>
<text text-anchor="middle" x="485.17" y="-84" font-family="Helvetica,sans-Serif" font-size="10.00" fill="grey"> next</text>
</g>
<!-- Node3 -->
<g id="Node000003" class="node">
<title>Node3</title>
<g id="a_Node000003"><a xlink:href="structinstruction.html" target="_top" xlink:title=" ">
<polygon fill="white" stroke="#666666" points="319.67,-174.5 251.67,-174.5 251.67,-155.5 319.67,-155.5 319.67,-174.5"/>
<text text-anchor="middle" x="285.67" y="-162.5" font-family="Helvetica,sans-Serif" font-size="10.00">instruction</text>
</a>
</g>
</g>
<!-- Node3&#45;&gt;Node1 -->
<g id="edge22_Node000001_Node000003" class="edge">
<title>Node3&#45;&gt;Node1</title>
<g id="a_edge22_Node000001_Node000003"><a xlink:title=" ">
<path fill="none" stroke="#9a32cd" stroke-dasharray="5,2" d="M284.29,-145.22C283.7,-126.98 284.81,-98.92 294.67,-77 305.72,-52.42 329.46,-30.85 343.85,-19.34"/>
<polygon fill="#9a32cd" stroke="#9a32cd" points="280.81,-145.59 284.83,-155.39 287.8,-145.22 280.81,-145.59"/>
</a>
</g>
<text text-anchor="middle" x="342.17" y="-84" font-family="Helvetica,sans-Serif" font-size="10.00" fill="grey"> current_instruction</text>
</g>
<!-- Node3&#45;&gt;Node2 -->
<g id="edge2_Node000002_Node000003" class="edge">
<title>Node3&#45;&gt;Node2</title>
<g id="a_edge2_Node000002_Node000003"><a xlink:title=" ">
<path fill="none" stroke="#9a32cd" stroke-dasharray="5,2" d="M306.57,-149.74C322.42,-139.22 344.95,-124.9 365.67,-114 378.34,-107.33 393.05,-100.91 404.85,-96.05"/>
<polygon fill="#9a32cd" stroke="#9a32cd" points="304.43,-146.96 298.07,-155.44 308.33,-152.77 304.43,-146.96"/>
</a>
</g>
<text text-anchor="middle" x="388.17" y="-128" font-family="Helvetica,sans-Serif" font-size="10.00" fill="grey"> code</text>
<text text-anchor="middle" x="388.17" y="-117" font-family="Helvetica,sans-Serif" font-size="10.00" fill="grey">code_tail</text>
</g>
<!-- Node3&#45;&gt;Node3 -->
<g id="edge3_Node000003_Node000003" class="edge">
<title>Node3&#45;&gt;Node3</title>
<g id="a_edge3_Node000003_Node000003"><a xlink:title=" ">
<path fill="none" stroke="#9a32cd" stroke-dasharray="5,2" d="M329.82,-170.33C334.59,-169.31 337.67,-167.53 337.67,-165 337.67,-160.95 329.8,-158.83 319.68,-158.64"/>
<polygon fill="#9a32cd" stroke="#9a32cd" points="329.27,-166.87 319.68,-171.36 329.98,-173.83 329.27,-166.87"/>
</a>
</g>
<text text-anchor="middle" x="350.17" y="-162.5" font-family="Helvetica,sans-Serif" font-size="10.00" fill="grey"> next</text>
</g>
<!-- Node4 -->
<g id="Node000004" class="node">
<title>Node4</title>
<g id="a_Node000004"><a xlink:href="structconstant.html" target="_top" xlink:title=" ">
<polygon fill="white" stroke="#666666" points="625.17,-174.5 566.17,-174.5 566.17,-155.5 625.17,-155.5 625.17,-174.5"/>
<text text-anchor="middle" x="595.67" y="-162.5" font-family="Helvetica,sans-Serif" font-size="10.00">constant</text>
</a>
</g>
</g>
<!-- Node4&#45;&gt;Node1 -->
<g id="edge23_Node000001_Node000004" class="edge">
<title>Node4&#45;&gt;Node1</title>
<g id="a_edge23_Node000001_Node000004"><a xlink:title=" ">
<path fill="none" stroke="#9a32cd" stroke-dasharray="5,2" d="M612.35,-147.36C614.94,-143.87 617.23,-140.02 618.67,-136 621.96,-126.79 623.55,-122.47 618.67,-114 571.98,-33.02 449.14,-15.25 389.34,-11.46"/>
<polygon fill="#9a32cd" stroke="#9a32cd" points="609.48,-145.34 605.61,-155.2 614.78,-149.9 609.48,-145.34"/>
</a>
</g>
<text text-anchor="middle" x="649.17" y="-84" font-family="Helvetica,sans-Serif" font-size="10.00" fill="grey"> current_constants</text>
</g>
<!-- Node4&#45;&gt;Node2 -->
<g id="edge4_Node000002_Node000004" class="edge">
<title>Node4&#45;&gt;Node2</title>
<g id="a_edge4_Node000002_Node000004"><a xlink:title=" ">
<path fill="none" stroke="#9a32cd" stroke-dasharray="5,2" d="M571.14,-150.41C564.01,-146.11 556.34,-141.13 549.67,-136 538.45,-127.38 539.01,-120.92 526.67,-114 504.27,-101.44 475.69,-94.64 454.83,-91.09"/>
<polygon fill="#9a32cd" stroke="#9a32cd" points="569.39,-153.44 579.79,-155.47 572.92,-147.4 569.39,-153.44"/>
</a>
</g>
<text text-anchor="middle" x="584.17" y="-128" font-family="Helvetica,sans-Serif" font-size="10.00" fill="grey"> constants</text>
<text text-anchor="middle" x="584.17" y="-117" font-family="Helvetica,sans-Serif" font-size="10.00" fill="grey">constants_tail</text>
</g>
<!-- Node4&#45;&gt;Node4 -->
<g id="edge7_Node000004_Node000004" class="edge">
<title>Node4&#45;&gt;Node4</title>
<g id="a_edge7_Node000004_Node000004"><a xlink:title=" ">
<path fill="none" stroke="#9a32cd" stroke-dasharray="5,2" d="M635.34,-170.48C640.08,-169.48 643.17,-167.66 643.17,-165 643.17,-160.75 635.25,-158.62 625.36,-158.62"/>
<polygon fill="#9a32cd" stroke="#9a32cd" points="635,-166.99 625.36,-171.38 635.63,-173.97 635,-166.99"/>
</a>
</g>
<text text-anchor="middle" x="655.67" y="-162.5" font-family="Helvetica,sans-Serif" font-size="10.00" fill="grey"> next</text>
</g>
<!-- Node5 -->
<g id="Node000005" class="node">
<title>Node5</title>
<g id="a_Node000005"><a xlink:href="structtype.html" target="_top" xlink:title=" ">
<polygon fill="white" stroke="#666666" points="234.67,-359 196.67,-359 196.67,-340 234.67,-340 234.67,-359"/>
<text text-anchor="middle" x="215.67" y="-347" font-family="Helvetica,sans-Serif" font-size="10.00">type</text>
</a>
</g>
</g>
<!-- Node5&#45;&gt;Node4 -->
<g id="edge5_Node000004_Node000005" class="edge">
<title>Node5&#45;&gt;Node4</title>
<g id="a_edge5_Node000004_Node000005"><a xlink:title=" ">
<path fill="none" stroke="#9a32cd" stroke-dasharray="5,2" d="M242.54,-335.6C315.66,-300.48 516.86,-203.85 577.89,-174.54"/>
<polygon fill="#9a32cd" stroke="#9a32cd" points="240.99,-332.46 233.49,-339.94 244.02,-338.77 240.99,-332.46"/>
</a>
</g>
<text text-anchor="middle" x="486.17" y="-230" font-family="Helvetica,sans-Serif" font-size="10.00" fill="grey"> type</text>
</g>
<!-- Node5&#45;&gt;Node5 -->
<g id="edge6_Node000005_Node000005" class="edge">
<title>Node5&#45;&gt;Node5</title>
<g id="a_edge6_Node000005_Node000005"><a xlink:title=" ">
<path fill="none" stroke="#9a32cd" stroke-dasharray="5,2" d="M232.63,-364.21C242.93,-367.6 252.67,-362.7 252.67,-349.5 252.67,-332.44 236.38,-329.24 223.66,-339.9"/>
<polygon fill="#9a32cd" stroke="#9a32cd" points="234.08,-361.01 223.66,-359.1 230.61,-367.09 234.08,-361.01"/>
</a>
</g>
<text text-anchor="middle" x="288.17" y="-358" font-family="Helvetica,sans-Serif" font-size="10.00" fill="grey"> element_type</text>
<text text-anchor="middle" x="288.17" y="-347" font-family="Helvetica,sans-Serif" font-size="10.00" fill="grey">param_types</text>
<text text-anchor="middle" x="288.17" y="-336" font-family="Helvetica,sans-Serif" font-size="10.00" fill="grey">return_type</text>
</g>
<!-- Node6 -->
<g id="Node000006" class="node">
<title>Node6</title>
<g id="a_Node000006"><a xlink:href="structsymbol.html" target="_top" xlink:title=" ">
<polygon fill="white" stroke="#666666" points="187.17,-242 134.17,-242 134.17,-223 187.17,-223 187.17,-242"/>
<text text-anchor="middle" x="160.67" y="-230" font-family="Helvetica,sans-Serif" font-size="10.00">symbol</text>
</a>
</g>
</g>
<!-- Node5&#45;&gt;Node6 -->
<g id="edge9_Node000006_Node000005" class="edge">
<title>Node5&#45;&gt;Node6</title>
<g id="a_edge9_Node000006_Node000005"><a xlink:title=" ">
<path fill="none" stroke="#9a32cd" stroke-dasharray="5,2" d="M207.18,-330.76C195.22,-305.74 173.85,-261.07 164.85,-242.24"/>
<polygon fill="#9a32cd" stroke="#9a32cd" points="204.06,-332.35 211.53,-339.86 210.38,-329.32 204.06,-332.35"/>
</a>
</g>
<text text-anchor="middle" x="191.17" y="-263" font-family="Helvetica,sans-Serif" font-size="10.00" fill="grey"> type</text>
</g>
<!-- Node9 -->
<g id="Node000009" class="node">
<title>Node9</title>
<g id="a_Node000009"><a xlink:href="structsema__t.html" target="_top" xlink:title=" ">
<polygon fill="white" stroke="#666666" points="89.17,-96 36.17,-96 36.17,-77 89.17,-77 89.17,-96"/>
<text text-anchor="middle" x="62.67" y="-84" font-family="Helvetica,sans-Serif" font-size="10.00">sema_t</text>
</a>
</g>
</g>
<!-- Node5&#45;&gt;Node9 -->
<g id="edge20_Node000009_Node000005" class="edge">
<title>Node5&#45;&gt;Node9</title>
<g id="a_edge20_Node000009_Node000005"><a xlink:title=" ">
<path fill="none" stroke="#9a32cd" stroke-dasharray="5,2" d="M211.14,-329.72C206.97,-316.42 199.44,-299.19 186.67,-289 159.2,-267.08 141.52,-285.86 109.67,-271 65.36,-250.33 43.53,-248.73 21.67,-205 11.51,-184.69 -26.56,-224.52 32.67,-114 36.48,-106.89 42.99,-100.79 48.98,-96.23"/>
<polygon fill="#9a32cd" stroke="#9a32cd" points="207.87,-331.02 213.9,-339.73 214.62,-329.16 207.87,-331.02"/>
</a>
</g>
<text text-anchor="middle" x="37.17" y="-197" font-family="Helvetica,sans-Serif" font-size="10.00" fill="grey"> types</text>
</g>
<!-- Node6&#45;&gt;Node2 -->
<g id="edge8_Node000002_Node000006" class="edge">
<title>Node6&#45;&gt;Node2</title>
<g id="a_edge8_Node000002_Node000006"><a xlink:title=" ">
<path fill="none" stroke="#9a32cd" stroke-dasharray="5,2" d="M197.66,-230.97C275.42,-229.01 451.73,-219.71 488.67,-176 502.61,-159.5 472.71,-115.19 471.67,-114 465.09,-106.5 455.86,-100.56 447.46,-96.21"/>
<polygon fill="#9a32cd" stroke="#9a32cd" points="197.28,-227.48 187.36,-231.21 197.44,-234.48 197.28,-227.48"/>
</a>
</g>
<text text-anchor="middle" x="507.67" y="-162.5" font-family="Helvetica,sans-Serif" font-size="10.00" fill="grey"> locals</text>
</g>
<!-- Node6&#45;&gt;Node6 -->
<g id="edge12_Node000006_Node000006" class="edge">
<title>Node6&#45;&gt;Node6</title>
<g id="a_edge12_Node000006_Node000006"><a xlink:title=" ">
<path fill="none" stroke="#9a32cd" stroke-dasharray="5,2" d="M197.76,-237.67C202.24,-236.74 205.17,-235.01 205.17,-232.5 205.17,-228.38 197.28,-226.38 187.61,-226.51"/>
<polygon fill="#9a32cd" stroke="#9a32cd" points="197.29,-234.2 187.61,-238.49 197.86,-241.18 197.29,-234.2"/>
</a>
</g>
<text text-anchor="middle" x="217.67" y="-230" font-family="Helvetica,sans-Serif" font-size="10.00" fill="grey"> next</text>
</g>
<!-- Node6&#45;&gt;Node9 -->
<g id="edge21_Node000009_Node000006" class="edge">
<title>Node6&#45;&gt;Node9</title>
<g id="a_edge21_Node000009_Node000006"><a xlink:title=" ">
<path fill="none" stroke="#9a32cd" stroke-dasharray="5,2" d="M123.97,-225.7C95.32,-219.04 57.34,-205.01 38.67,-176 22.04,-150.16 44.12,-112.98 56,-96.25"/>
<polygon fill="#9a32cd" stroke="#9a32cd" points="123.54,-229.19 134.05,-227.84 124.99,-222.34 123.54,-229.19"/>
</a>
</g>
<text text-anchor="middle" x="83.67" y="-162.5" font-family="Helvetica,sans-Serif" font-size="10.00" fill="grey"> function_symbols</text>
</g>
<!-- Node10 -->
<g id="Node000010" class="node">
<title>Node10</title>
<g id="a_Node000010"><a xlink:href="structscope.html" target="_top" xlink:title=" ">
<polygon fill="white" stroke="#666666" points="183.17,-174.5 138.17,-174.5 138.17,-155.5 183.17,-155.5 183.17,-174.5"/>
<text text-anchor="middle" x="160.67" y="-162.5" font-family="Helvetica,sans-Serif" font-size="10.00">scope</text>
</a>
</g>
</g>
<!-- Node6&#45;&gt;Node10 -->
<g id="edge19_Node000010_Node000006" class="edge">
<title>Node6&#45;&gt;Node10</title>
<g id="a_edge19_Node000010_Node000006"><a xlink:title=" ">
<path fill="none" stroke="#9a32cd" stroke-dasharray="5,2" d="M160.67,-212.68C160.67,-200.21 160.67,-184.42 160.67,-174.77"/>
<polygon fill="#9a32cd" stroke="#9a32cd" points="157.17,-212.94 160.67,-222.94 164.17,-212.94 157.17,-212.94"/>
</a>
</g>
<text text-anchor="middle" x="183.17" y="-197" font-family="Helvetica,sans-Serif" font-size="10.00" fill="grey"> symbols</text>
</g>
<!-- Node7 -->
<g id="Node000007" class="node">
<title>Node7</title>
<g id="a_Node000007"><a xlink:href="structast__node.html" target="_top" xlink:title=" ">
<polygon fill="white" stroke="#666666" points="99.17,-359 38.17,-359 38.17,-340 99.17,-340 99.17,-359"/>
<text text-anchor="middle" x="68.67" y="-347" font-family="Helvetica,sans-Serif" font-size="10.00">ast_node</text>
</a>
</g>
</g>
<!-- Node7&#45;&gt;Node6 -->
<g id="edge10_Node000006_Node000007" class="edge">
<title>Node7&#45;&gt;Node6</title>
<g id="a_edge10_Node000006_Node000007"><a xlink:title=" ">
<path fill="none" stroke="#9a32cd" stroke-dasharray="5,2" d="M76.79,-330.65C86.03,-311.66 102.48,-281.46 122.67,-260 129.28,-252.97 138.04,-246.71 145.49,-242.04"/>
<polygon fill="#9a32cd" stroke="#9a32cd" points="73.52,-329.38 72.43,-339.92 79.86,-332.36 73.52,-329.38"/>
</a>
</g>
<text text-anchor="middle" x="146.67" y="-263" font-family="Helvetica,sans-Serif" font-size="10.00" fill="grey"> ast_node</text>
</g>
<!-- Node7&#45;&gt;Node7 -->
<g id="edge11_Node000007_Node000007" class="edge">
<title>Node7&#45;&gt;Node7</title>
<g id="a_edge11_Node000007_Node000007"><a xlink:title=" ">
<path fill="none" stroke="#9a32cd" stroke-dasharray="5,2" d="M88.44,-363.5C102.8,-368.16 117.17,-363.5 117.17,-349.5 117.17,-332.44 95.82,-329.24 79.15,-339.9"/>
<polygon fill="#9a32cd" stroke="#9a32cd" points="89.68,-360.22 79.15,-359.1 86.68,-366.54 89.68,-360.22"/>
</a>
</g>
<text text-anchor="middle" x="147.67" y="-402" font-family="Helvetica,sans-Serif" font-size="10.00" fill="grey"> arguments</text>
<text text-anchor="middle" x="147.67" y="-391" font-family="Helvetica,sans-Serif" font-size="10.00" fill="grey">body</text>
<text text-anchor="middle" x="147.67" y="-380" font-family="Helvetica,sans-Serif" font-size="10.00" fill="grey">callee</text>
<text text-anchor="middle" x="147.67" y="-369" font-family="Helvetica,sans-Serif" font-size="10.00" fill="grey">catch_block</text>
<text text-anchor="middle" x="147.67" y="-358" font-family="Helvetica,sans-Serif" font-size="10.00" fill="grey">class_name</text>
<text text-anchor="middle" x="147.67" y="-347" font-family="Helvetica,sans-Serif" font-size="10.00" fill="grey">condition</text>
<text text-anchor="middle" x="147.67" y="-336" font-family="Helvetica,sans-Serif" font-size="10.00" fill="grey">declarations</text>
<text text-anchor="middle" x="147.67" y="-325" font-family="Helvetica,sans-Serif" font-size="10.00" fill="grey">elements</text>
<text text-anchor="middle" x="147.67" y="-314" font-family="Helvetica,sans-Serif" font-size="10.00" fill="grey">elif_list</text>
<text text-anchor="middle" x="147.67" y="-303" font-family="Helvetica,sans-Serif" font-size="10.00" fill="grey">else_branch</text>
<text text-anchor="middle" x="147.67" y="-292" font-family="Helvetica,sans-Serif" font-size="10.00" fill="grey">...</text>
</g>
<!-- Node8 -->
<g id="Node000008" class="node">
<title>Node8</title>
<g id="a_Node000008"><a xlink:href="structupvalue.html" target="_top" xlink:title=" ">
<polygon fill="white" stroke="#666666" points="436.67,-174.5 380.67,-174.5 380.67,-155.5 436.67,-155.5 436.67,-174.5"/>
<text text-anchor="middle" x="408.67" y="-162.5" font-family="Helvetica,sans-Serif" font-size="10.00">upvalue</text>
</a>
</g>
</g>
<!-- Node8&#45;&gt;Node2 -->
<g id="edge13_Node000002_Node000008" class="edge">
<title>Node8&#45;&gt;Node2</title>
<g id="a_edge13_Node000002_Node000008"><a xlink:title=" ">
<path fill="none" stroke="#9a32cd" stroke-dasharray="5,2" d="M413.12,-145.1C416.79,-129.47 421.85,-107.99 424.63,-96.17"/>
<polygon fill="#9a32cd" stroke="#9a32cd" points="409.62,-144.69 410.73,-155.22 416.43,-146.29 409.62,-144.69"/>
</a>
</g>
<text text-anchor="middle" x="443.67" y="-122.5" font-family="Helvetica,sans-Serif" font-size="10.00" fill="grey"> upvalues</text>
</g>
<!-- Node8&#45;&gt;Node8 -->
<g id="edge14_Node000008_Node000008" class="edge">
<title>Node8&#45;&gt;Node8</title>
<g id="a_edge14_Node000008_Node000008"><a xlink:title=" ">
<path fill="none" stroke="#9a32cd" stroke-dasharray="5,2" d="M447.22,-170.45C451.73,-169.45 454.67,-167.63 454.67,-165 454.67,-160.68 446.76,-158.56 436.97,-158.63"/>
<polygon fill="#9a32cd" stroke="#9a32cd" points="446.61,-166.99 436.97,-171.37 447.24,-173.96 446.61,-166.99"/>
</a>
</g>
<text text-anchor="middle" x="467.17" y="-162.5" font-family="Helvetica,sans-Serif" font-size="10.00" fill="grey"> next</text>
</g>
<!-- Node9&#45;&gt;Node1 -->
<g id="edge16_Node000001_Node000009" class="edge">
<title>Node9&#45;&gt;Node1</title>
<g id="a_edge16_Node000001_Node000009"><a xlink:title=" ">
<path fill="none" stroke="#9a32cd" stroke-dasharray="5,2" d="M99.43,-75.03C135.35,-64.9 191.62,-49.33 240.67,-37 267.99,-30.13 299.14,-23 322.12,-17.86"/>
<polygon fill="#9a32cd" stroke="#9a32cd" points="98.09,-71.77 89.42,-77.86 100,-78.5 98.09,-71.77"/>
</a>
</g>
<text text-anchor="middle" x="256.17" y="-45.5" font-family="Helvetica,sans-Serif" font-size="10.00" fill="grey"> sema</text>
</g>
<!-- Node10&#45;&gt;Node9 -->
<g id="edge17_Node000009_Node000010" class="edge">
<title>Node10&#45;&gt;Node9</title>
<g id="a_edge17_Node000009_Node000010"><a xlink:title=" ">
<path fill="none" stroke="#9a32cd" stroke-dasharray="5,2" d="M141.52,-149.05C121.34,-133.3 90.24,-109.02 73.78,-96.17"/>
<polygon fill="#9a32cd" stroke="#9a32cd" points="139.39,-151.83 149.43,-155.22 143.7,-146.31 139.39,-151.83"/>
</a>
</g>
<text text-anchor="middle" x="159.67" y="-128" font-family="Helvetica,sans-Serif" font-size="10.00" fill="grey"> current_scope</text>
<text text-anchor="middle" x="159.67" y="-117" font-family="Helvetica,sans-Serif" font-size="10.00" fill="grey">global_scope</text>
</g>
<!-- Node10&#45;&gt;Node10 -->
<g id="edge18_Node000010_Node000010" class="edge">
<title>Node10&#45;&gt;Node10</title>
<g id="a_edge18_Node000010_Node000010"><a xlink:title=" ">
<path fill="none" stroke="#9a32cd" stroke-dasharray="5,2" d="M193.67,-170.67C198.17,-169.72 201.17,-167.83 201.17,-165 201.17,-160.35 193.09,-158.25 183.57,-158.68"/>
<polygon fill="#9a32cd" stroke="#9a32cd" points="193.32,-167.18 183.57,-171.32 193.77,-174.17 193.32,-167.18"/>
</a>
</g>
<text text-anchor="middle" x="217.17" y="-168" font-family="Helvetica,sans-Serif" font-size="10.00" fill="grey"> child</text>
<text text-anchor="middle" x="217.17" y="-157" font-family="Helvetica,sans-Serif" font-size="10.00" fill="grey">parent</text>
</g>
</g>
</svg>
