<?xml version="1.0" encoding="UTF-8" standalone="no"?>
<!DOCTYPE svg PUBLIC "-//W3C//DTD SVG 1.1//EN"
 "http://www.w3.org/Graphics/SVG/1.1/DTD/svg11.dtd">
<!-- Generated by graphviz version 2.43.0 (0)
 -->
<!-- Title: vm Pages: 1 -->
<svg width="490pt" height="440pt"
 viewBox="0.00 0.00 490.00 440.00" xmlns="http://www.w3.org/2000/svg" xmlns:xlink="http://www.w3.org/1999/xlink">

<svg id="main" version="1.1" xmlns="http://www.w3.org/2000/svg" xmlns:xlink="http://www.w3.org/1999/xlink" xml:space="preserve" onload="init(evt)">
<style type="text/css"><![CDATA[
.node, .edge {opacity: 0.7;}
.node.selected, .edge.selected {opacity: 1;}
.edge:hover path { stroke: red; }
.edge:hover polygon { stroke: red; fill: red; }
]]></style>
<script type="application/ecmascript" xlink:href="svg.min.js"/>
<svg id="graph" class="graph">
<g id="graph0" class="graph" transform="scale(1 1) rotate(0) translate(4 436)">
<title>vm</title>
<!-- Node1 -->
<g id="Node000001" class="node">
<title>Node1</title>
<g id="a_Node000001"><a xlink:title=" ">
<polygon fill="#999999" stroke="#666666" points="115,-19 83,-19 83,0 115,0 115,-19"/>
<text text-anchor="middle" x="99" y="-7" font-family="Helvetica,sans-Serif" font-size="10.00">vm</text>
</a>
</g>
</g>
<!-- Node2 -->
<g id="Node000002" class="node">
<title>Node2</title>
<g id="a_Node000002"><a xlink:href="structvm__object.html" target="_top" xlink:title=" ">
<polygon fill="white" stroke="#666666" points="68,-119.5 0,-119.5 0,-100.5 68,-100.5 68,-119.5"/>
<text text-anchor="middle" x="34" y="-107.5" font-family="Helvetica,sans-Serif" font-size="10.00">vm_object</text>
</a>
</g>
</g>
<!-- Node2&#45;&gt;Node1 -->
<g id="edge1_Node000001_Node000002" class="edge">
<title>Node2&#45;&gt;Node1</title>
<g id="a_edge1_Node000001_Node000002"><a xlink:title=" ">
<path fill="none" stroke="#9a32cd" stroke-dasharray="5,2" d="M43.61,-91.21C51.88,-76.34 64.43,-54.77 77,-37 81.42,-30.75 86.92,-24.13 91.31,-19.06"/>
<polygon fill="#9a32cd" stroke="#9a32cd" points="40.36,-89.86 38.62,-100.31 46.5,-93.22 40.36,-89.86"/>
</a>
</g>
<text text-anchor="middle" x="103" y="-73" font-family="Helvetica,sans-Serif" font-size="10.00" fill="grey"> exception</text>
<text text-anchor="middle" x="103" y="-62" font-family="Helvetica,sans-Serif" font-size="10.00" fill="grey">globals</text>
<text text-anchor="middle" x="103" y="-51" font-family="Helvetica,sans-Serif" font-size="10.00" fill="grey">heap</text>
<text text-anchor="middle" x="103" y="-40" font-family="Helvetica,sans-Serif" font-size="10.00" fill="grey">heap_free</text>
</g>
<!-- Node2&#45;&gt;Node2 -->
<g id="edge4_Node000002_Node000002" class="edge">
<title>Node2&#45;&gt;Node2</title>
<g id="a_edge4_Node000002_Node000002"><a xlink:title=" ">
<path fill="none" stroke="#9a32cd" stroke-dasharray="5,2" d="M78.15,-115.33C82.92,-114.31 86,-112.53 86,-110 86,-105.95 78.13,-103.83 68.01,-103.64"/>
<polygon fill="#9a32cd" stroke="#9a32cd" points="77.6,-111.87 68.01,-116.36 78.31,-118.83 77.6,-111.87"/>
</a>
</g>
<text text-anchor="middle" x="100" y="-113" font-family="Helvetica,sans-Serif" font-size="10.00" fill="grey"> class</text>
<text text-anchor="middle" x="100" y="-102" font-family="Helvetica,sans-Serif" font-size="10.00" fill="grey">next</text>
</g>
<!-- Node3 -->
<g id="Node000003" class="node">
<title>Node3</title>
<g id="a_Node000003"><a xlink:href="structtype.html" target="_top" xlink:title=" ">
<polygon fill="white" stroke="#666666" points="49,-381 11,-381 11,-362 49,-362 49,-381"/>
<text text-anchor="middle" x="30" y="-369" font-family="Helvetica,sans-Serif" font-size="10.00">type</text>
</a>
</g>
</g>
<!-- Node3&#45;&gt;Node2 -->
<g id="edge2_Node000002_Node000003" class="edge">
<title>Node3&#45;&gt;Node2</title>
<g id="a_edge2_Node000002_Node000003"><a xlink:title=" ">
<path fill="none" stroke="#9a32cd" stroke-dasharray="5,2" d="M25.41,-351.85C20.46,-330.7 12.9,-295.12 10,-264 4.84,-208.58 23.72,-142.75 31.13,-119.58"/>
<polygon fill="#9a32cd" stroke="#9a32cd" points="22.05,-352.83 27.78,-361.74 28.85,-351.2 22.05,-352.83"/>
</a>
</g>
<text text-anchor="middle" x="24.5" y="-213.5" font-family="Helvetica,sans-Serif" font-size="10.00" fill="grey"> type</text>
</g>
<!-- Node3&#45;&gt;Node3 -->
<g id="edge3_Node000003_Node000003" class="edge">
<title>Node3&#45;&gt;Node3</title>
<g id="a_edge3_Node000003_Node000003"><a xlink:title=" ">
<path fill="none" stroke="#9a32cd" stroke-dasharray="5,2" d="M46.96,-386.21C57.26,-389.6 67,-384.7 67,-371.5 67,-354.44 50.72,-351.24 37.99,-361.9"/>
<polygon fill="#9a32cd" stroke="#9a32cd" points="48.41,-383.01 37.99,-381.1 44.95,-389.09 48.41,-383.01"/>
</a>
</g>
<text text-anchor="middle" x="102.5" y="-380" font-family="Helvetica,sans-Serif" font-size="10.00" fill="grey"> element_type</text>
<text text-anchor="middle" x="102.5" y="-369" font-family="Helvetica,sans-Serif" font-size="10.00" fill="grey">param_types</text>
<text text-anchor="middle" x="102.5" y="-358" font-family="Helvetica,sans-Serif" font-size="10.00" fill="grey">return_type</text>
</g>
<!-- Node6 -->
<g id="Node000006" class="node">
<title>Node6</title>
<g id="a_Node000006"><a xlink:href="structconstant.html" target="_top" xlink:title=" ">
<polygon fill="white" stroke="#666666" points="78.5,-264 19.5,-264 19.5,-245 78.5,-245 78.5,-264"/>
<text text-anchor="middle" x="49" y="-252" font-family="Helvetica,sans-Serif" font-size="10.00">constant</text>
</a>
</g>
</g>
<!-- Node3&#45;&gt;Node6 -->
<g id="edge9_Node000006_Node000003" class="edge">
<title>Node3&#45;&gt;Node6</title>
<g id="a_edge9_Node000006_Node000003"><a xlink:title=" ">
<path fill="none" stroke="#9a32cd" stroke-dasharray="5,2" d="M33.1,-351.75C37.26,-326.56 44.49,-282.82 47.56,-264.24"/>
<polygon fill="#9a32cd" stroke="#9a32cd" points="29.61,-351.42 31.43,-361.86 36.51,-352.56 29.61,-351.42"/>
</a>
</g>
<text text-anchor="middle" x="57.5" y="-285" font-family="Helvetica,sans-Serif" font-size="10.00" fill="grey"> type</text>
</g>
<!-- Node7 -->
<g id="Node000007" class="node">
<title>Node7</title>
<g id="a_Node000007"><a xlink:href="structsymbol.html" target="_top" xlink:title=" ">
<polygon fill="white" stroke="#666666" points="192.5,-264 139.5,-264 139.5,-245 192.5,-245 192.5,-264"/>
<text text-anchor="middle" x="166" y="-252" font-family="Helvetica,sans-Serif" font-size="10.00">symbol</text>
</a>
</g>
</g>
<!-- Node3&#45;&gt;Node7 -->
<g id="edge12_Node000007_Node000003" class="edge">
<title>Node3&#45;&gt;Node7</title>
<g id="a_edge12_Node000007_Node000003"><a xlink:title=" ">
<path fill="none" stroke="#9a32cd" stroke-dasharray="5,2" d="M47.92,-355.35C76.77,-330.95 132.61,-283.74 155.66,-264.24"/>
<polygon fill="#9a32cd" stroke="#9a32cd" points="45.6,-352.73 40.22,-361.86 50.12,-358.07 45.6,-352.73"/>
</a>
</g>
<text text-anchor="middle" x="146.5" y="-285" font-family="Helvetica,sans-Serif" font-size="10.00" fill="grey"> type</text>
</g>
<!-- Node4 -->
<g id="Node000004" class="node">
<title>Node4</title>
<g id="a_Node000004"><a xlink:href="structfunction.html" target="_top" xlink:title=" ">
<polygon fill="white" stroke="#666666" points="194,-187 138,-187 138,-168 194,-168 194,-187"/>
<text text-anchor="middle" x="166" y="-175" font-family="Helvetica,sans-Serif" font-size="10.00">function</text>
</a>
</g>
</g>
<!-- Node4&#45;&gt;Node2 -->
<g id="edge5_Node000002_Node000004" class="edge">
<title>Node4&#45;&gt;Node2</title>
<g id="a_edge5_Node000002_Node000004"><a xlink:title=" ">
<path fill="none" stroke="#9a32cd" stroke-dasharray="5,2" d="M139.72,-163.46C113.45,-150.42 73.79,-130.75 51.26,-119.57"/>
<polygon fill="#9a32cd" stroke="#9a32cd" points="138.23,-166.63 148.74,-167.94 141.34,-160.36 138.23,-166.63"/>
</a>
</g>
<text text-anchor="middle" x="133.5" y="-142" font-family="Helvetica,sans-Serif" font-size="10.00" fill="grey"> function</text>
</g>
<!-- Node4&#45;&gt;Node4 -->
<g id="edge18_Node000004_Node000004" class="edge">
<title>Node4&#45;&gt;Node4</title>
<g id="a_edge18_Node000004_Node000004"><a xlink:title=" ">
<path fill="none" stroke="#9a32cd" stroke-dasharray="5,2" d="M204.55,-182.63C209.06,-181.69 212,-179.98 212,-177.5 212,-173.44 204.09,-171.44 194.3,-171.5"/>
<polygon fill="#9a32cd" stroke="#9a32cd" points="203.97,-179.17 194.3,-183.5 204.56,-186.14 203.97,-179.17"/>
</a>
</g>
<text text-anchor="middle" x="224.5" y="-175" font-family="Helvetica,sans-Serif" font-size="10.00" fill="grey"> next</text>
</g>
<!-- Node10 -->
<g id="Node000010" class="node">
<title>Node10</title>
<g id="a_Node000010"><a xlink:href="structvm__frame.html" target="_top" xlink:title=" ">
<polygon fill="white" stroke="#666666" points="199.5,-119.5 132.5,-119.5 132.5,-100.5 199.5,-100.5 199.5,-119.5"/>
<text text-anchor="middle" x="166" y="-107.5" font-family="Helvetica,sans-Serif" font-size="10.00">vm_frame</text>
</a>
</g>
</g>
<!-- Node4&#45;&gt;Node10 -->
<g id="edge20_Node000010_Node000004" class="edge">
<title>Node4&#45;&gt;Node10</title>
<g id="a_edge20_Node000010_Node000004"><a xlink:title=" ">
<path fill="none" stroke="#9a32cd" stroke-dasharray="5,2" d="M166,-157.68C166,-145.21 166,-129.42 166,-119.77"/>
<polygon fill="#9a32cd" stroke="#9a32cd" points="162.5,-157.94 166,-167.94 169.5,-157.94 162.5,-157.94"/>
</a>
</g>
<text text-anchor="middle" x="187.5" y="-142" font-family="Helvetica,sans-Serif" font-size="10.00" fill="grey"> function</text>
</g>
<!-- Node5 -->
<g id="Node000005" class="node">
<title>Node5</title>
<g id="a_Node000005"><a xlink:href="structinstruction.html" target="_top" xlink:title=" ">
<polygon fill="white" stroke="#666666" points="322,-264 254,-264 254,-245 322,-245 322,-264"/>
<text text-anchor="middle" x="288" y="-252" font-family="Helvetica,sans-Serif" font-size="10.00">instruction</text>
</a>
</g>
</g>
<!-- Node5&#45;&gt;Node4 -->
<g id="edge6_Node000004_Node000005" class="edge">
<title>Node5&#45;&gt;Node4</title>
<g id="a_edge6_Node000004_Node000005"><a xlink:title=" ">
<path fill="none" stroke="#9a32cd" stroke-dasharray="5,2" d="M265.16,-239.46C240.08,-224.04 200.6,-199.77 179.83,-187"/>
<polygon fill="#9a32cd" stroke="#9a32cd" points="263.65,-242.64 274.01,-244.9 267.32,-236.68 263.65,-242.64"/>
</a>
</g>
<text text-anchor="middle" x="263.5" y="-219" font-family="Helvetica,sans-Serif" font-size="10.00" fill="grey"> code</text>
<text text-anchor="middle" x="263.5" y="-208" font-family="Helvetica,sans-Serif" font-size="10.00" fill="grey">code_tail</text>
</g>
<!-- Node5&#45;&gt;Node5 -->
<g id="edge7_Node000005_Node000005" class="edge">
<title>Node5&#45;&gt;Node5</title>
<g id="a_edge7_Node000005_Node000005"><a xlink:title=" ">
<path fill="none" stroke="#9a32cd" stroke-dasharray="5,2" d="M332.15,-259.52C336.92,-258.56 340,-256.88 340,-254.5 340,-250.69 332.13,-248.69 322.01,-248.51"/>
<polygon fill="#9a32cd" stroke="#9a32cd" points="331.63,-256.05 322.01,-260.49 332.3,-263.02 331.63,-256.05"/>
</a>
</g>
<text text-anchor="middle" x="352.5" y="-252" font-family="Helvetica,sans-Serif" font-size="10.00" fill="grey"> next</text>
</g>
<!-- Node6&#45;&gt;Node4 -->
<g id="edge8_Node000004_Node000006" class="edge">
<title>Node6&#45;&gt;Node4</title>
<g id="a_edge8_Node000004_Node000006"><a xlink:title=" ">
<path fill="none" stroke="#9a32cd" stroke-dasharray="5,2" d="M61.01,-236.51C69.05,-226.19 80.44,-213.43 93,-205 106.55,-195.91 123.6,-189.49 137.81,-185.25"/>
<polygon fill="#9a32cd" stroke="#9a32cd" points="58.02,-234.67 54.86,-244.78 63.64,-238.85 58.02,-234.67"/>
</a>
</g>
<text text-anchor="middle" x="127.5" y="-219" font-family="Helvetica,sans-Serif" font-size="10.00" fill="grey"> constants</text>
<text text-anchor="middle" x="127.5" y="-208" font-family="Helvetica,sans-Serif" font-size="10.00" fill="grey">constants_tail</text>
</g>
<!-- Node6&#45;&gt;Node6 -->
<g id="edge10_Node000006_Node000006" class="edge">
<title>Node6&#45;&gt;Node6</title>
<g id="a_edge10_Node000006_Node000006"><a xlink:title=" ">
<path fill="none" stroke="#9a32cd" stroke-dasharray="5,2" d="M88.67,-259.66C93.41,-258.72 96.5,-257 96.5,-254.5 96.5,-250.5 88.58,-248.5 78.69,-248.5"/>
<polygon fill="#9a32cd" stroke="#9a32cd" points="88.36,-256.17 78.69,-260.5 88.95,-263.15 88.36,-256.17"/>
</a>
</g>
<text text-anchor="middle" x="109" y="-252" font-family="Helvetica,sans-Serif" font-size="10.00" fill="grey"> next</text>
</g>
<!-- Node7&#45;&gt;Node4 -->
<g id="edge11_Node000004_Node000007" class="edge">
<title>Node7&#45;&gt;Node4</title>
<g id="a_edge11_Node000004_Node000007"><a xlink:title=" ">
<path fill="none" stroke="#9a32cd" stroke-dasharray="5,2" d="M166,-234.52C166,-219.24 166,-198.48 166,-187"/>
<polygon fill="#9a32cd" stroke="#9a32cd" points="162.5,-234.9 166,-244.9 169.5,-234.9 162.5,-234.9"/>
</a>
</g>
<text text-anchor="middle" x="182" y="-213.5" font-family="Helvetica,sans-Serif" font-size="10.00" fill="grey"> locals</text>
</g>
<!-- Node7&#45;&gt;Node7 -->
<g id="edge15_Node000007_Node000007" class="edge">
<title>Node7&#45;&gt;Node7</title>
<g id="a_edge15_Node000007_Node000007"><a xlink:title=" ">
<path fill="none" stroke="#9a32cd" stroke-dasharray="5,2" d="M203.09,-259.67C207.57,-258.74 210.5,-257.01 210.5,-254.5 210.5,-250.38 202.61,-248.38 192.94,-248.51"/>
<polygon fill="#9a32cd" stroke="#9a32cd" points="202.62,-256.2 192.94,-260.49 203.19,-263.18 202.62,-256.2"/>
</a>
</g>
<text text-anchor="middle" x="223" y="-252" font-family="Helvetica,sans-Serif" font-size="10.00" fill="grey"> next</text>
</g>
<!-- Node8 -->
<g id="Node000008" class="node">
<title>Node8</title>
<g id="a_Node000008"><a xlink:href="structast__node.html" target="_top" xlink:title=" ">
<polygon fill="white" stroke="#666666" points="217.5,-381 156.5,-381 156.5,-362 217.5,-362 217.5,-381"/>
<text text-anchor="middle" x="187" y="-369" font-family="Helvetica,sans-Serif" font-size="10.00">ast_node</text>
</a>
</g>
</g>
<!-- Node8&#45;&gt;Node7 -->
<g id="edge13_Node000007_Node000008" class="edge">
<title>Node8&#45;&gt;Node7</title>
<g id="a_edge13_Node000007_Node000008"><a xlink:title=" ">
<path fill="none" stroke="#9a32cd" stroke-dasharray="5,2" d="M183.58,-351.75C178.98,-326.56 170.99,-282.82 167.6,-264.24"/>
<polygon fill="#9a32cd" stroke="#9a32cd" points="180.18,-352.65 185.42,-361.86 187.07,-351.39 180.18,-352.65"/>
</a>
</g>
<text text-anchor="middle" x="196" y="-285" font-family="Helvetica,sans-Serif" font-size="10.00" fill="grey"> ast_node</text>
</g>
<!-- Node8&#45;&gt;Node8 -->
<g id="edge14_Node000008_Node000008" class="edge">
<title>Node8&#45;&gt;Node8</title>
<g id="a_edge14_Node000008_Node000008"><a xlink:title=" ">
<path fill="none" stroke="#9a32cd" stroke-dasharray="5,2" d="M206.77,-385.5C221.14,-390.16 235.5,-385.5 235.5,-371.5 235.5,-354.44 214.15,-351.24 197.48,-361.9"/>
<polygon fill="#9a32cd" stroke="#9a32cd" points="208.01,-382.22 197.48,-381.1 205.01,-388.54 208.01,-382.22"/>
</a>
</g>
<text text-anchor="middle" x="266" y="-424" font-family="Helvetica,sans-Serif" font-size="10.00" fill="grey"> arguments</text>
<text text-anchor="middle" x="266" y="-413" font-family="Helvetica,sans-Serif" font-size="10.00" fill="grey">body</text>
<text text-anchor="middle" x="266" y="-402" font-family="Helvetica,sans-Serif" font-size="10.00" fill="grey">callee</text>
<text text-anchor="middle" x="266" y="-391" font-family="Helvetica,sans-Serif" font-size="10.00" fill="grey">catch_block</text>
<text text-anchor="middle" x="266" y="-380" font-family="Helvetica,sans-Serif" font-size="10.00" fill="grey">class_name</text>
<text text-anchor="middle" x="266" y="-369" font-family="Helvetica,sans-Serif" font-size="10.00" fill="grey">condition</text>
<text text-anchor="middle" x="266" y="-358" font-family="Helvetica,sans-Serif" font-size="10.00" fill="grey">declarations</text>
<text text-anchor="middle" x="266" y="-347" font-family="Helvetica,sans-Serif" font-size="10.00" fill="grey">elements</text>
<text text-anchor="middle" x="266" y="-336" font-family="Helvetica,sans-Serif" font-size="10.00" fill="grey">elif_list</text>
<text text-anchor="middle" x="266" y="-325" font-family="Helvetica,sans-Serif" font-size="10.00" fill="grey">else_branch</text>
<text text-anchor="middle" x="266" y="-314" font-family="Helvetica,sans-Serif" font-size="10.00" fill="grey">...</text>
</g>
<!-- Node9 -->
<g id="Node000009" class="node">
<title>Node9</title>
<g id="a_Node000009"><a xlink:href="structupvalue.html" target="_top" xlink:title=" ">
<polygon fill="white" stroke="#666666" points="439,-264 383,-264 383,-245 439,-245 439,-264"/>
<text text-anchor="middle" x="411" y="-252" font-family="Helvetica,sans-Serif" font-size="10.00">upvalue</text>
</a>
</g>
</g>
<!-- Node9&#45;&gt;Node4 -->
<g id="edge16_Node000004_Node000009" class="edge">
<title>Node9&#45;&gt;Node4</title>
<g id="a_edge16_Node000004_Node000009"><a xlink:title=" ">
<path fill="none" stroke="#9a32cd" stroke-dasharray="5,2" d="M383.21,-240.78C359,-230.08 322.73,-214.98 290,-205 257.78,-195.18 219.78,-187.63 194.42,-183.15"/>
<polygon fill="#9a32cd" stroke="#9a32cd" points="381.94,-244.04 392.49,-244.93 384.79,-237.65 381.94,-244.04"/>
</a>
</g>
<text text-anchor="middle" x="374" y="-213.5" font-family="Helvetica,sans-Serif" font-size="10.00" fill="grey"> upvalues</text>
</g>
<!-- Node9&#45;&gt;Node9 -->
<g id="edge17_Node000009_Node000009" class="edge">
<title>Node9&#45;&gt;Node9</title>
<g id="a_edge17_Node000009_Node000009"><a xlink:title=" ">
<path fill="none" stroke="#9a32cd" stroke-dasharray="5,2" d="M449.55,-259.63C454.06,-258.69 457,-256.98 457,-254.5 457,-250.44 449.09,-248.44 439.3,-248.5"/>
<polygon fill="#9a32cd" stroke="#9a32cd" points="448.97,-256.17 439.3,-260.5 449.56,-263.14 448.97,-256.17"/>
</a>
</g>
<text text-anchor="middle" x="469.5" y="-252" font-family="Helvetica,sans-Serif" font-size="10.00" fill="grey"> next</text>
</g>
<!-- Node10&#45;&gt;Node1 -->
<g id="edge19_Node000001_Node000010" class="edge">
<title>Node10&#45;&gt;Node1</title>
<g id="a_edge19_Node000001_Node000010"><a xlink:title=" ">
<path fill="none" stroke="#9a32cd" stroke-dasharray="5,2" d="M159.02,-91.09C152.58,-75.83 142.04,-53.77 129,-37 123.8,-30.31 116.74,-23.98 110.78,-19.18"/>
<polygon fill="#9a32cd" stroke="#9a32cd" points="155.81,-92.47 162.81,-100.42 162.29,-89.84 155.81,-92.47"/>
</a>
</g>
<text text-anchor="middle" x="174" y="-56.5" font-family="Helvetica,sans-Serif" font-size="10.00" fill="grey"> frames</text>
</g>
<!-- Node10&#45;&gt;Node10 -->
<g id="edge21_Node000010_Node000010" class="edge">
<title>Node10&#45;&gt;Node10</title>
<g id="a_edge21_Node000010_Node000010"><a xlink:title=" ">
<path fill="none" stroke="#9a32cd" stroke-dasharray="5,2" d="M209.72,-115.33C214.45,-114.31 217.5,-112.53 217.5,-110 217.5,-105.95 209.7,-103.83 199.68,-103.64"/>
<polygon fill="#9a32cd" stroke="#9a32cd" points="209.27,-111.86 199.68,-116.36 209.99,-118.82 209.27,-111.86"/>
</a>
</g>
<text text-anchor="middle" x="235" y="-107.5" font-family="Helvetica,sans-Serif" font-size="10.00" fill="grey"> parent</text>
</g>
</g>
</svg>
</svg>

<style type='text/css'>
<![CDATA[
[data-mouse-over-selected='false'] { opacity: 0.7; }
[data-mouse-over-selected='true']  { opacity: 1.0; }
]]>
</style>
<script type="application/ecmascript"><![CDATA[
document.addEventListener('DOMContentLoaded', (event) => {
  highlightEdges();
  highlightAdjacentNodes();
});
]]></script>
</svg>
